ply
format ascii 1.0
comment Created by Blender 2.76 (sub 0) - www.blender.org, source file: ''
element vertex 482
property float x
property float y
property float z
property float nx
property float ny
property float nz
element face 512
property list uchar uint vertex_indices
end_header
-0.656847 -0.004902 0.986798 -0.354686 -0.134800 0.925199
-0.397342 0.004288 0.961286 -0.117893 -0.225501 0.967071
-0.399131 0.085546 0.992598 -0.175176 -0.152135 0.972686
-0.635740 0.119211 0.975660 -0.364940 0.081881 0.927396
-0.950489 0.005546 -0.648372 -0.745476 0.028077 -0.665914
-1.106914 0.003614 -0.474084 -0.971954 0.008698 -0.234931
-1.063092 0.219089 -0.466519 -0.896481 0.319620 -0.306742
-0.910115 0.197859 -0.632304 -0.746666 0.295938 -0.595721
-0.808164 -0.006589 0.834031 -0.805506 -0.125980 0.578997
-0.811379 0.155378 0.843943 -0.743004 0.113407 0.659566
-0.798915 0.014980 -0.820837 -0.698172 -0.152837 -0.699393
-0.796413 0.168343 -0.838958 -0.754418 0.212867 -0.620899
-0.895275 0.000541 0.595667 -0.833949 -0.111545 0.540422
-0.939594 0.195041 0.634251 -0.835475 0.041902 0.547868
-0.647497 0.011633 -0.983847 -0.549181 -0.300424 -0.779809
-0.641455 0.136920 -0.990475 -0.611255 0.039033 -0.790429
-1.054478 -0.009958 0.428478 -0.871334 -0.084902 0.483230
-1.056696 0.215224 0.448456 -0.882168 0.086612 0.462874
-0.430028 0.016023 -1.060321 -0.408521 -0.360118 -0.838679
-0.430119 0.108672 -1.099175 -0.494430 -0.213385 -0.842586
-1.140566 -0.013879 0.225065 -0.990936 -0.130436 0.031404
-1.135638 0.224056 0.227907 -0.986816 0.080691 0.140110
-0.224738 0.020649 -1.183931 -0.308573 -0.471755 -0.825953
-0.225494 0.067925 -1.211663 -0.326975 -0.404279 -0.854152
-1.050133 0.001321 -0.000713 -0.974517 -0.147862 -0.168584
-1.125489 0.230860 0.002998 -0.978698 0.035707 -0.202002
-1.063953 0.001269 -0.217429 -0.994690 -0.100589 0.020539
-1.042362 0.206421 -0.214246 -0.978393 0.162084 -0.128117
-0.201818 0.006538 1.030731 -0.254982 -0.250740 0.933836
-0.200686 0.046319 1.039575 -0.233833 -0.235847 0.943205
-0.191931 0.084831 1.048306 -0.193976 -0.166723 0.966704
-0.384106 0.164528 1.020919 -0.247047 -0.053468 0.967498
-0.972220 0.409093 -0.214659 -0.854335 0.454970 -0.251106
-0.951645 0.398703 -0.438389 -0.809046 0.488540 -0.326701
-0.586164 0.240214 0.955210 -0.394391 0.212195 0.894101
-0.840805 0.356581 -0.617625 -0.669607 0.486282 -0.561357
-0.751321 0.303389 0.823220 -0.614887 0.327128 0.717551
-0.725928 0.309781 -0.808166 -0.680929 0.478927 -0.554003
-0.893177 0.373687 0.644232 -0.755974 0.362621 0.544908
-0.596896 0.261454 -0.993932 -0.651173 0.282479 -0.704367
-0.992022 0.403681 0.455881 -0.816614 0.388134 0.427137
-0.412854 0.202135 -1.143233 -0.549364 -0.040315 -0.834590
-1.069884 0.445238 0.221481 -0.882534 0.427747 0.195196
-0.217430 0.114362 -1.234875 -0.307596 -0.279733 -0.909452
-1.105890 0.454446 -0.001189 -0.879025 0.425275 -0.215522
-0.797672 0.526388 0.645398 -0.642170 0.578722 0.502609
-0.865061 0.577907 0.428421 -0.660848 0.606250 0.442396
-0.528354 0.373393 -1.004319 -0.669759 0.430616 -0.604938
-0.375579 0.285940 -1.167387 -0.538072 0.133000 -0.832331
-0.957602 0.644549 0.232190 -0.725913 0.667348 0.166173
-0.200107 0.156891 -1.250424 -0.250252 -0.137608 -0.958342
-0.914936 0.609856 -0.003948 -0.670125 0.696432 -0.256569
-0.865636 0.581303 -0.208743 -0.695395 0.688986 -0.204108
-0.174965 0.120074 1.053329 -0.112857 -0.052370 0.992218
-0.352238 0.240031 1.043707 -0.253456 0.077548 0.964202
-0.851278 0.572618 -0.426010 -0.681661 0.642079 -0.350749
-0.520407 0.349338 0.941813 -0.408795 0.282876 0.867641
-0.737480 0.493132 -0.594937 -0.555101 0.604877 -0.570910
-0.675403 0.455670 0.816971 -0.543321 0.440046 0.714927
-0.631319 0.425703 -0.777103 -0.624226 0.608692 -0.489700
-0.702057 0.704277 -0.200262 -0.681631 0.720237 -0.128819
-0.700048 0.701612 -0.411331 -0.641957 0.670492 -0.371868
-0.303432 0.304369 1.049955 -0.166448 0.213263 0.962706
-0.439233 0.440234 0.937835 -0.340953 0.391705 0.854549
-0.601362 0.599805 -0.566038 -0.571093 0.596088 -0.564348
-0.578913 0.576143 0.818906 -0.448744 0.594195 0.667470
-0.528123 0.529635 -0.767489 -0.671346 0.605365 -0.427534
-0.645261 0.644112 0.617440 -0.518509 0.725486 0.452498
-0.447087 0.474301 -1.020181 -0.672658 0.483291 -0.560259
-0.712723 0.716442 0.412551 -0.525529 0.709098 0.470046
-0.327008 0.360250 -1.185708 -0.473190 0.250832 -0.844478
-0.803633 0.800926 0.224640 -0.610523 0.783776 0.113559
-0.174124 0.193870 -1.258726 -0.165441 -0.030183 -0.985748
-0.740848 0.744098 0.003659 -0.623157 0.743706 -0.241951
-0.150167 0.150310 1.053039 0.015748 0.085482 0.996185
-0.356061 0.575071 -1.045591 -0.600909 0.514969 -0.611286
-0.261356 0.420598 -1.192160 -0.333262 0.352763 -0.874325
-0.557488 0.832884 0.414460 -0.527848 0.725425 0.441694
-0.611749 0.913570 0.215102 -0.534928 0.841151 0.079165
-0.140304 0.224223 -1.261710 -0.070437 0.048952 -0.996307
-0.580240 0.870014 0.002567 -0.569170 0.807886 -0.152745
-0.581751 0.878557 -0.217818 -0.619922 0.777612 -0.104648
-0.118547 0.173793 1.045846 0.169591 0.209662 0.962920
-0.240230 0.352454 1.038884 0.038392 0.338328 0.940214
-0.561669 0.846079 -0.420897 -0.644002 0.687368 -0.335765
-0.346340 0.516591 0.941880 -0.148656 0.522202 0.839747
-0.479604 0.734733 -0.586102 -0.707114 0.524827 -0.473800
-0.441447 0.661401 0.799233 -0.339335 0.671377 0.658834
-0.419011 0.658105 -0.798901 -0.754234 0.504074 -0.420698
-0.498822 0.742527 0.600608 -0.504440 0.710166 0.491073
-0.164906 0.379301 1.007078 0.275826 0.419691 0.864711
-0.236416 0.557273 0.909364 0.120060 0.572954 0.810724
-0.384854 0.930168 -0.426476 -0.460585 0.872494 -0.163060
-0.363600 0.913348 -0.666607 -0.620045 0.694723 -0.364483
-0.300269 0.722947 0.782894 -0.125584 0.671468 0.730308
-0.308513 0.797741 -0.869089 -0.573840 0.601123 -0.556139
-0.352789 0.864096 0.623237 -0.305460 0.762719 0.569994
-0.252335 0.644166 -1.053634 -0.396466 0.578692 -0.712638
-0.398573 0.970848 0.432671 -0.314798 0.879147 0.357707
-0.183809 0.464405 -1.189009 -0.178198 0.415143 -0.892117
-0.417953 1.002957 0.217139 -0.272988 0.960601 0.051851
-0.099261 0.247156 -1.261489 -0.008087 0.085696 -0.996277
-0.407041 0.981925 -0.000916 -0.255074 0.962859 -0.088260
-0.406041 0.968091 -0.211723 -0.303537 0.950407 -0.067324
-0.081476 0.189802 1.032695 0.280557 0.288949 0.915281
-0.201446 0.978962 0.416813 0.064516 0.965728 0.251320
-0.204274 0.996539 0.203789 0.046052 0.997101 0.060518
-0.097063 0.491751 -1.183845 -0.068392 0.435560 -0.897519
-0.051823 0.261832 -1.259989 0.010498 0.094638 -0.995453
-0.199195 0.990860 0.000558 -0.020905 0.998413 -0.052095
-0.192435 0.967025 -0.197519 -0.112766 0.993439 0.017914
-0.041032 0.198978 1.019974 0.212806 0.317209 0.924131
-0.080277 0.385173 0.957689 0.268715 0.441664 0.855983
-0.197893 1.021734 -0.457168 -0.257149 0.966216 0.015870
-0.115899 0.562284 0.858431 0.179327 0.507370 0.842830
-0.194029 1.001096 -0.696901 -0.287973 0.880520 -0.376476
-0.148597 0.746922 0.759605 0.033723 0.623218 0.781304
-0.162485 0.863150 -0.878865 -0.194555 0.728080 -0.657247
-0.182092 0.898645 0.611635 0.009827 0.850215 0.526322
-0.133884 0.688275 -1.055315 -0.129276 0.632405 -0.763756
0.000000 1.059244 -0.464851 0.000000 0.998169 0.059999
0.000000 1.030197 -0.703973 0.000000 0.916257 -0.400494
0.000000 0.559883 0.836305 0.000000 0.460799 0.887478
0.000000 0.765509 0.761586 0.000000 0.598834 0.800836
0.000000 0.867516 -0.861297 0.000000 0.739372 -0.673269
0.000000 0.891532 0.600712 0.000000 0.876980 0.480483
0.000000 0.703062 -1.048702 0.000000 0.651143 -0.758934
0.000000 0.930930 0.386575 0.000000 0.976470 0.215552
0.000000 0.502336 -1.181536 0.000000 0.441939 -0.897031
0.000000 0.980785 0.195090 0.000000 0.995239 0.097293
0.000000 0.267026 -1.259020 0.000000 0.095187 -0.995453
0.000000 1.000000 0.000000 0.000000 0.999603 -0.027314
0.000000 0.988972 -0.199790 0.000000 0.997162 0.074984
0.000000 0.202212 1.016129 0.000000 0.319407 0.947600
0.000000 0.386747 0.940546 0.000000 0.445662 0.895169
0.097064 0.491751 -1.183845 0.068392 0.435560 -0.897519
0.051824 0.261832 -1.259989 -0.010498 0.094638 -0.995453
0.204274 0.996539 0.203789 -0.046052 0.997101 0.060518
0.199196 0.990860 0.000558 0.020905 0.998413 -0.052095
0.192436 0.967025 -0.197519 0.112766 0.993439 0.017914
0.041033 0.198978 1.019975 -0.212806 0.317209 0.924131
0.080278 0.385173 0.957689 -0.268715 0.441664 0.855983
0.197893 1.021734 -0.457168 0.257149 0.966216 0.015870
0.115900 0.562284 0.858431 -0.179327 0.507370 0.842830
0.194030 1.001096 -0.696901 0.287973 0.880520 -0.376476
0.148598 0.746922 0.759605 -0.033723 0.623218 0.781304
0.162486 0.863150 -0.878866 0.194555 0.728080 -0.657247
0.182093 0.898645 0.611635 -0.009827 0.850215 0.526322
0.133885 0.688275 -1.055315 0.129276 0.632405 -0.763756
0.201447 0.978962 0.416814 -0.064516 0.965728 0.251320
0.363600 0.913347 -0.666607 0.620045 0.694723 -0.364483
0.308513 0.797740 -0.869088 0.573840 0.601123 -0.556139
0.300270 0.722947 0.782894 0.125584 0.671468 0.730308
0.352790 0.864096 0.623237 0.305460 0.762719 0.569994
0.252335 0.644165 -1.053634 0.396466 0.578692 -0.712638
0.398573 0.970848 0.432671 0.314798 0.879147 0.357707
0.183810 0.464405 -1.189009 0.178198 0.415143 -0.892117
0.417954 1.002957 0.217139 0.273019 0.960601 0.051851
0.099262 0.247156 -1.261489 0.008087 0.085696 -0.996277
0.407042 0.981925 -0.000916 0.255074 0.962859 -0.088260
0.406042 0.968090 -0.211723 0.303537 0.950407 -0.067324
0.081476 0.189802 1.032695 -0.280557 0.288949 0.915281
0.164907 0.379301 1.007079 -0.275826 0.419691 0.864711
0.384855 0.930169 -0.426476 0.460585 0.872494 -0.163060
0.236417 0.557273 0.909365 -0.120060 0.572954 0.810724
0.580241 0.870013 0.002567 0.569170 0.807886 -0.152745
0.581752 0.878557 -0.217818 0.619922 0.777612 -0.104648
0.118547 0.173793 1.045847 -0.169591 0.209662 0.962920
0.240230 0.352454 1.038884 -0.038392 0.338328 0.940214
0.561669 0.846079 -0.420897 0.644002 0.687368 -0.335765
0.346340 0.516591 0.941880 0.148656 0.522202 0.839747
0.479605 0.734732 -0.586102 0.707114 0.524827 -0.473800
0.441447 0.661401 0.799233 0.339335 0.671377 0.658834
0.419011 0.658105 -0.798900 0.754234 0.504074 -0.420698
0.498822 0.742527 0.600608 0.504440 0.710135 0.491073
0.356062 0.575071 -1.045591 0.600909 0.514969 -0.611286
0.557489 0.832883 0.414460 0.527848 0.725425 0.441694
0.261357 0.420598 -1.192160 0.333262 0.352763 -0.874325
0.611750 0.913570 0.215102 0.534928 0.841151 0.079165
0.140305 0.224222 -1.261710 0.070437 0.048952 -0.996307
0.578914 0.576143 0.818906 0.448744 0.594195 0.667470
0.645262 0.644112 0.617440 0.518509 0.725486 0.452498
0.528124 0.529635 -0.767489 0.671346 0.605365 -0.427534
0.447088 0.474300 -1.020181 0.672658 0.483291 -0.560259
0.712724 0.716441 0.412551 0.525529 0.709098 0.470046
0.327009 0.360249 -1.185708 0.473190 0.250832 -0.844478
0.803633 0.800925 0.224640 0.610523 0.783776 0.113559
0.174124 0.193869 -1.258726 0.165441 -0.030183 -0.985748
0.740849 0.744098 0.003659 0.623157 0.743706 -0.241951
0.702057 0.704277 -0.200262 0.681631 0.720237 -0.128819
0.150168 0.150310 1.053039 -0.015748 0.085482 0.996185
0.303432 0.304369 1.049955 0.166448 0.213263 0.962706
0.700049 0.701612 -0.411331 0.641957 0.670492 -0.371868
0.439234 0.440234 0.937835 0.340953 0.391705 0.854549
0.601363 0.599805 -0.566038 0.571093 0.596088 -0.564348
0.914936 0.609856 -0.003948 0.670156 0.696432 -0.256569
0.865636 0.581303 -0.208743 0.695395 0.688986 -0.204108
0.174966 0.120074 1.053329 0.112857 -0.052370 0.992218
0.352239 0.240031 1.043707 0.253456 0.077548 0.964202
0.851278 0.572618 -0.426010 0.681661 0.642079 -0.350749
0.520408 0.349338 0.941813 0.408795 0.282876 0.867641
0.737481 0.493131 -0.594937 0.555101 0.604877 -0.570910
0.675403 0.455669 0.816971 0.543321 0.440046 0.714927
0.631319 0.425703 -0.777104 0.624226 0.608692 -0.489700
0.797672 0.526388 0.645398 0.642170 0.578722 0.502640
0.528354 0.373393 -1.004319 0.669759 0.430616 -0.604938
0.865061 0.577907 0.428421 0.660848 0.606250 0.442396
0.375580 0.285940 -1.167387 0.538072 0.133000 -0.832301
0.957602 0.644549 0.232190 0.725913 0.667348 0.166173
0.200107 0.156891 -1.250424 0.250252 -0.137608 -0.958342
0.725928 0.309781 -0.808166 0.680929 0.478927 -0.554003
0.596897 0.261453 -0.993932 0.651173 0.282479 -0.704367
0.893178 0.373686 0.644232 0.755974 0.362621 0.544908
0.992022 0.403681 0.455880 0.816614 0.388134 0.427137
0.412855 0.202135 -1.143233 0.549394 -0.040315 -0.834590
1.069884 0.445238 0.221481 0.882534 0.427747 0.195196
0.217430 0.114362 -1.234875 0.307596 -0.279733 -0.909452
1.105891 0.454445 -0.001189 0.879025 0.425245 -0.215522
0.972220 0.409093 -0.214659 0.854335 0.454970 -0.251106
0.191932 0.084831 1.048306 0.193976 -0.166723 0.966704
0.384107 0.164528 1.020918 0.247047 -0.053468 0.967498
0.951646 0.398703 -0.438389 0.809046 0.488540 -0.326701
0.586165 0.240214 0.955210 0.394391 0.212195 0.894101
0.840805 0.356581 -0.617625 0.669607 0.486282 -0.561357
0.751321 0.303389 0.823220 0.614887 0.327128 0.717551
0.200687 0.046319 1.039575 0.233833 -0.235847 0.943205
0.399132 0.085546 0.992597 0.175176 -0.152135 0.972686
1.042363 0.206421 -0.214246 0.978393 0.162084 -0.128117
1.063093 0.219089 -0.466519 0.896481 0.319620 -0.306742
0.635741 0.119211 0.975660 0.364940 0.081881 0.927396
0.910115 0.197859 -0.632304 0.746666 0.295938 -0.595721
0.811379 0.155377 0.843943 0.743004 0.113407 0.659566
0.796414 0.168343 -0.838958 0.754418 0.212867 -0.620899
0.939594 0.195041 0.634251 0.835475 0.041902 0.547868
0.641455 0.136920 -0.990475 0.611255 0.039033 -0.790429
1.056696 0.215224 0.448456 0.882168 0.086612 0.462874
0.430119 0.108672 -1.099175 0.494430 -0.213385 -0.842586
1.135638 0.224055 0.227907 0.986816 0.080691 0.140110
0.225495 0.067925 -1.211663 0.326975 -0.404279 -0.854152
1.125489 0.230859 0.002998 0.978698 0.035707 -0.202002
0.895275 0.000541 0.595667 0.833949 -0.111545 0.540422
1.054478 -0.009958 0.428478 0.871334 -0.084902 0.483230
0.647497 0.011633 -0.983847 0.549181 -0.300424 -0.779809
0.430029 0.016023 -1.060321 0.408521 -0.360118 -0.838679
1.140566 -0.013879 0.225065 0.990936 -0.130436 0.031404
0.224738 0.020649 -1.183931 0.308573 -0.471755 -0.825953
1.050134 0.001321 -0.000713 0.974517 -0.147862 -0.168584
1.063953 0.001269 -0.217429 0.994690 -0.100589 0.020539
0.201818 0.006538 1.030731 0.254982 -0.250740 0.933836
0.397342 0.004288 0.961286 0.117893 -0.225501 0.967071
1.106914 0.003615 -0.474084 0.971954 0.008698 -0.234931
0.656847 -0.004902 0.986798 0.354686 -0.134800 0.925199
0.950489 0.005545 -0.648372 0.745476 0.028077 -0.665914
0.808164 -0.006589 0.834031 0.805506 -0.125980 0.578997
0.798915 0.014980 -0.820837 0.698172 -0.152837 -0.699393
1.007463 -0.204315 -0.207444 0.986297 -0.164708 -0.007263
1.042282 -0.202518 -0.457197 0.979644 -0.170324 -0.106143
0.383787 -0.074966 0.940181 0.120273 -0.185522 0.975219
0.632342 -0.120942 0.960149 0.314127 -0.254219 0.914670
0.984661 -0.196659 -0.683697 0.741111 -0.057985 -0.668844
0.785376 -0.156650 0.814859 0.773095 -0.241401 0.586535
0.733740 -0.143226 -0.747672 0.520615 -0.198004 -0.830470
0.882243 -0.179123 0.602084 0.800439 -0.129368 0.585223
0.598063 -0.112376 -0.929212 0.501755 -0.435377 -0.747429
1.054755 -0.211852 0.443590 0.877102 -0.163610 0.451521
0.411547 -0.071585 -1.028786 0.368084 -0.455916 -0.810297
1.066805 -0.215669 0.217971 0.978851 -0.204382 0.003693
0.215990 -0.025405 -1.154734 0.271004 -0.513535 -0.814112
1.043753 -0.213560 0.001748 0.981658 -0.143742 -0.125126
0.195729 -0.033036 1.023317 0.277474 -0.197363 0.940214
0.536081 -0.219775 -0.884804 0.495621 -0.256691 -0.829707
0.378978 -0.153453 -1.006984 0.402295 -0.397961 -0.824458
0.988403 -0.398757 0.434342 0.780389 -0.482162 0.398083
1.019700 -0.415256 0.219069 0.877651 -0.470412 0.091708
0.200033 -0.068847 -1.125786 0.233955 -0.507553 -0.829218
1.021181 -0.415831 0.003797 0.947844 -0.318613 0.006500
0.998518 -0.418248 -0.213323 0.977783 -0.206702 -0.034333
0.183114 -0.070852 1.020489 0.317545 -0.065096 0.945982
0.361225 -0.148399 0.937903 0.194433 -0.008606 0.980865
0.980221 -0.408072 -0.444046 0.965575 -0.241096 -0.097415
0.587356 -0.225696 0.941064 0.346019 -0.188849 0.919004
0.975187 -0.392680 -0.715550 0.762291 -0.155705 -0.628193
0.732167 -0.289295 0.794171 0.690542 -0.372600 0.619892
0.716892 -0.296119 -0.767148 0.402203 -0.027741 -0.915098
0.853674 -0.347468 0.615503 0.700034 -0.415723 0.580554
0.918034 -0.595342 -0.456977 0.818628 -0.536943 -0.203742
0.871769 -0.562939 -0.709676 0.703696 -0.418653 -0.574023
0.530614 -0.340897 0.951867 0.490005 0.020173 0.871456
0.652096 -0.420456 0.787344 0.765191 -0.272500 0.583270
0.679224 -0.450227 -0.817276 0.440413 -0.021943 -0.897488
0.735461 -0.488697 0.591002 0.775475 -0.415571 0.475265
0.475993 -0.318690 -0.878332 0.494552 -0.042482 -0.868068
0.826195 -0.540978 0.403867 0.771966 -0.514267 0.373577
0.339735 -0.228265 -1.012054 0.428297 -0.254433 -0.867061
0.868278 -0.572264 0.208862 0.832118 -0.528001 0.169561
0.177855 -0.108118 -1.098599 0.192450 -0.457503 -0.868099
0.903479 -0.589549 -0.002128 0.854244 -0.505875 0.119633
0.970309 -0.629565 -0.224676 0.866390 -0.498337 -0.031831
0.164877 -0.105333 1.024548 0.360393 0.098575 0.927549
0.329958 -0.224036 0.963343 0.320505 0.203803 0.925047
0.290694 -0.292640 -1.020959 0.302530 -0.203742 -0.931089
0.150658 -0.141445 -1.077073 0.099216 -0.446181 -0.889401
0.800893 -0.791998 0.214917 0.893124 -0.425336 0.146245
0.790057 -0.783580 -0.015582 0.855953 -0.511063 0.078310
0.800528 -0.790370 -0.233864 0.813715 -0.576037 -0.077731
0.141096 -0.135948 1.032232 0.328288 0.163091 0.930387
0.293352 -0.304419 1.029391 0.334880 0.179785 0.924924
0.754278 -0.742568 -0.445184 0.719687 -0.622517 -0.307382
0.461211 -0.461497 0.988697 0.425581 -0.120121 0.896878
0.717156 -0.698443 -0.700013 0.627613 -0.593432 -0.503861
0.606099 -0.602934 0.871482 0.655843 -0.365368 0.660573
0.610424 -0.607504 -0.886996 0.485855 -0.242531 -0.839686
0.666868 -0.677824 0.643028 0.808069 -0.364910 0.462416
0.419065 -0.426854 -0.930209 0.413587 0.000214 -0.910428
0.735322 -0.741583 0.425238 0.860897 -0.351604 0.367687
0.361719 -0.533752 0.977901 0.115299 -0.509262 0.852840
0.465094 -0.685794 0.841316 0.181310 -0.673849 0.716239
0.547040 -0.817604 -0.679833 0.388287 -0.762322 -0.517747
0.485777 -0.714669 -0.903000 0.262642 -0.552141 -0.791253
0.547383 -0.831211 0.669317 0.394177 -0.678426 0.619922
0.340803 -0.515646 -0.969455 0.116367 -0.215583 -0.969512
0.632555 -0.967622 0.471960 0.529069 -0.744438 0.407300
0.229451 -0.341224 -1.013268 0.026795 -0.266030 -0.963561
0.669528 -0.998303 0.235065 0.595172 -0.791864 0.136692
0.118834 -0.167542 -1.060070 -0.030824 -0.477279 -0.878201
0.672274 -0.986014 -0.009343 0.631214 -0.774590 0.038728
0.689846 -1.008718 -0.259281 0.630421 -0.762841 -0.143529
0.111986 -0.161865 1.040969 0.217933 0.118625 0.968719
0.239063 -0.364002 1.069094 0.170141 -0.101291 0.980193
0.635310 -0.945597 -0.479467 0.514756 -0.738701 -0.435102
0.434083 -1.044715 0.217599 0.079501 -0.977294 0.196387
0.443746 -1.079736 -0.000408 0.191107 -0.977874 0.084689
0.452608 -1.073372 -0.251854 0.170324 -0.967406 -0.187353
0.077963 -0.181440 1.049982 0.110294 0.053621 0.992431
0.166884 -0.400072 1.076109 -0.008545 -0.301157 0.953520
0.419481 -1.001921 -0.460856 0.106632 -0.894742 -0.433607
0.241477 -0.568050 0.936306 -0.029145 -0.660207 0.750481
0.363191 -0.878551 -0.644833 0.086032 -0.837764 -0.539171
0.294071 -0.710522 0.775301 0.005554 -0.681326 0.731925
0.319534 -0.754954 -0.864727 -0.025056 -0.683401 -0.729576
0.370613 -0.896951 0.635849 0.025330 -0.799036 0.600696
0.236889 -0.562999 -0.951481 -0.155431 -0.370342 -0.915769
0.409143 -0.996299 0.448840 0.008545 -0.944975 0.326975
0.158348 -0.372045 -0.991493 -0.205390 -0.311380 -0.927793
0.082636 -0.185647 -1.044315 -0.157598 -0.510239 -0.845454
0.177113 -0.916075 -0.631801 0.066836 -0.819727 -0.568804
0.151176 -0.760920 -0.806732 -0.054476 -0.668081 -0.742058
0.148522 -0.765941 0.784023 0.115665 -0.618885 0.776910
0.174156 -0.904157 0.613927 0.099124 -0.850276 0.516861
0.117166 -0.587571 -0.919841 -0.168920 -0.392621 -0.904019
0.195845 -0.975059 0.416654 -0.039552 -0.975311 0.217139
0.080246 -0.384546 -0.957205 -0.229377 -0.295328 -0.927427
0.202918 -1.003076 0.197752 -0.042421 -0.944975 0.324351
0.042533 -0.195538 -1.028977 -0.189581 -0.525376 -0.829432
0.224392 -1.141119 -0.004522 0.121250 -0.973754 0.192572
0.211834 -1.073550 -0.219450 0.186651 -0.949583 -0.251747
0.040093 -0.193481 1.056949 0.032716 -0.003052 0.999451
0.084994 -0.419031 1.065219 -0.068361 -0.395489 0.915891
0.199284 -1.009175 -0.441522 0.134037 -0.898160 -0.418714
0.118025 -0.580765 0.888594 -0.000549 -0.623707 0.781640
0.000000 -1.174538 -0.012317 0.000000 -0.968902 0.247353
0.000000 -1.179041 -0.228517 0.000000 -0.960509 -0.278176
0.000000 -0.197528 1.060047 0.000000 -0.025971 0.999634
0.000000 -0.424877 1.053535 0.000000 -0.433729 0.901028
0.000000 -1.046985 -0.452210 0.000000 -0.897824 -0.440321
0.000000 -0.586505 0.875835 0.000000 -0.577807 0.816157
0.000000 -0.944689 -0.637565 0.000000 -0.803247 -0.595599
0.000000 -0.796894 0.799630 0.000000 -0.602832 0.797845
0.000000 -0.760922 -0.793262 0.000000 -0.636158 -0.771508
0.000000 -0.942415 0.640205 0.000000 -0.878048 0.478530
0.000000 -0.596470 -0.910436 0.000000 -0.386242 -0.922361
0.000000 -0.982463 0.419138 0.000000 -0.986694 0.162542
0.000000 -0.385579 -0.934619 0.000000 -0.277657 -0.960662
0.000000 -0.981336 0.195078 0.000000 -0.934080 0.356975
0.000000 -0.198332 -1.020736 0.000000 -0.531785 -0.846858
-0.148522 -0.765941 0.784023 -0.115665 -0.618885 0.776910
-0.174155 -0.904156 0.613927 -0.099124 -0.850276 0.516861
-0.151176 -0.760920 -0.806732 0.054476 -0.668081 -0.742058
-0.117165 -0.587571 -0.919841 0.168920 -0.392621 -0.904019
-0.195844 -0.975059 0.416654 0.039552 -0.975311 0.217139
-0.080245 -0.384546 -0.957205 0.229377 -0.295328 -0.927427
-0.202918 -1.003076 0.197752 0.042421 -0.944975 0.324351
-0.042533 -0.195538 -1.028977 0.189581 -0.525376 -0.829432
-0.224392 -1.141120 -0.004522 -0.121250 -0.973754 0.192572
-0.211834 -1.073550 -0.219450 -0.186651 -0.949583 -0.251747
-0.040093 -0.193481 1.056949 -0.032716 -0.003052 0.999451
-0.084993 -0.419031 1.065219 0.068361 -0.395489 0.915891
-0.199283 -1.009175 -0.441521 -0.134037 -0.898160 -0.418714
-0.118024 -0.580765 0.888594 0.000549 -0.623707 0.781640
-0.177113 -0.916075 -0.631801 -0.066836 -0.819727 -0.568804
-0.443746 -1.079735 -0.000408 -0.191107 -0.977874 0.084689
-0.452608 -1.073372 -0.251854 -0.170324 -0.967406 -0.187353
-0.077962 -0.181440 1.049982 -0.110294 0.053621 0.992431
-0.166884 -0.400072 1.076109 0.008545 -0.301157 0.953520
-0.419480 -1.001921 -0.460856 -0.106632 -0.894742 -0.433607
-0.241477 -0.568050 0.936306 0.029145 -0.660207 0.750481
-0.363190 -0.878551 -0.644833 -0.086032 -0.837764 -0.539171
-0.294071 -0.710521 0.775301 -0.005554 -0.681326 0.731925
-0.319534 -0.754954 -0.864727 0.025056 -0.683401 -0.729576
-0.370612 -0.896951 0.635848 -0.025330 -0.799036 0.600696
-0.236888 -0.562999 -0.951481 0.155431 -0.370342 -0.915769
-0.409143 -0.996299 0.448840 -0.008545 -0.944975 0.326975
-0.158348 -0.372045 -0.991493 0.205390 -0.311380 -0.927793
-0.434082 -1.044715 0.217599 -0.079501 -0.977294 0.196387
-0.082635 -0.185647 -1.044315 0.157598 -0.510239 -0.845454
-0.485777 -0.714669 -0.903000 -0.262642 -0.552141 -0.791253
-0.340802 -0.515646 -0.969455 -0.116367 -0.215583 -0.969512
-0.547383 -0.831211 0.669317 -0.394177 -0.678426 0.619922
-0.632554 -0.967622 0.471960 -0.529038 -0.744438 0.407300
-0.229451 -0.341224 -1.013268 -0.026765 -0.266030 -0.963561
-0.669528 -0.998302 0.235065 -0.595172 -0.791864 0.136692
-0.118833 -0.167542 -1.060070 0.030824 -0.477279 -0.878170
-0.672274 -0.986014 -0.009343 -0.631214 -0.774590 0.038728
-0.689845 -1.008717 -0.259281 -0.630421 -0.762841 -0.143529
-0.111986 -0.161865 1.040969 -0.217933 0.118625 0.968719
-0.239062 -0.364002 1.069094 -0.170141 -0.101291 0.980193
-0.635309 -0.945597 -0.479467 -0.514756 -0.738701 -0.435102
-0.361718 -0.533751 0.977901 -0.115299 -0.509262 0.852840
-0.547040 -0.817604 -0.679833 -0.388287 -0.762322 -0.517747
-0.465093 -0.685794 0.841316 -0.181310 -0.673849 0.716239
-0.800528 -0.790370 -0.233864 -0.813715 -0.576037 -0.077731
-0.754278 -0.742569 -0.445184 -0.719687 -0.622517 -0.307382
-0.293351 -0.304418 1.029391 -0.334880 0.179785 0.924924
-0.461210 -0.461497 0.988698 -0.425581 -0.120121 0.896878
-0.717156 -0.698443 -0.700013 -0.627613 -0.593432 -0.503861
-0.606099 -0.602934 0.871482 -0.655843 -0.365368 0.660573
-0.610424 -0.607504 -0.886996 -0.485855 -0.242531 -0.839686
-0.666868 -0.677824 0.643028 -0.808069 -0.364910 0.462416
-0.419064 -0.426853 -0.930209 -0.413587 0.000214 -0.910428
-0.735321 -0.741583 0.425238 -0.860897 -0.351604 0.367687
-0.290694 -0.292640 -1.020959 -0.302530 -0.203742 -0.931089
-0.800892 -0.791998 0.214917 -0.893124 -0.425336 0.146245
-0.150657 -0.141445 -1.077073 -0.099216 -0.446181 -0.889401
-0.790056 -0.783580 -0.015582 -0.855953 -0.511063 0.078310
-0.141096 -0.135948 1.032233 -0.328288 0.163091 0.930387
-0.475993 -0.318690 -0.878332 -0.494552 -0.042482 -0.868068
-0.339735 -0.228265 -1.012055 -0.428297 -0.254433 -0.867061
-0.826194 -0.540978 0.403867 -0.771966 -0.514267 0.373577
-0.868277 -0.572264 0.208862 -0.832118 -0.528001 0.169561
-0.177854 -0.108118 -1.098599 -0.192450 -0.457503 -0.868099
-0.903478 -0.589548 -0.002128 -0.854244 -0.505875 0.119633
-0.970309 -0.629564 -0.224676 -0.866390 -0.498337 -0.031831
-0.164876 -0.105333 1.024548 -0.360393 0.098575 0.927549
-0.329958 -0.224036 0.963343 -0.320505 0.203803 0.925047
-0.918033 -0.595342 -0.456977 -0.818628 -0.536943 -0.203742
-0.530613 -0.340897 0.951867 -0.490005 0.020173 0.871456
-0.871769 -0.562939 -0.709676 -0.703696 -0.418653 -0.574023
-0.652096 -0.420455 0.787344 -0.765191 -0.272469 0.583270
-0.679224 -0.450227 -0.817276 -0.440413 -0.021943 -0.897488
-0.735460 -0.488696 0.591002 -0.775475 -0.415571 0.475265
-0.361224 -0.148399 0.937903 -0.194433 -0.008606 0.980865
-0.587355 -0.225696 0.941064 -0.346019 -0.188849 0.919004
-0.980221 -0.408073 -0.444046 -0.965575 -0.241096 -0.097415
-0.975186 -0.392680 -0.715551 -0.762291 -0.155705 -0.628224
-0.732167 -0.289295 0.794171 -0.690542 -0.372600 0.619892
-0.716891 -0.296119 -0.767148 -0.402203 -0.027741 -0.915098
-0.853674 -0.347468 0.615503 -0.700034 -0.415723 0.580584
-0.536081 -0.219775 -0.884804 -0.495621 -0.256691 -0.829707
-0.988402 -0.398758 0.434342 -0.780389 -0.482162 0.398083
-0.378978 -0.153453 -1.006984 -0.402295 -0.397961 -0.824458
-1.019700 -0.415256 0.219069 -0.877651 -0.470412 0.091708
-0.200032 -0.068847 -1.125786 -0.233955 -0.507553 -0.829218
-1.021181 -0.415831 0.003797 -0.947844 -0.318613 0.006500
-0.998518 -0.418247 -0.213323 -0.977783 -0.206702 -0.034333
-0.183113 -0.070852 1.020489 -0.317545 -0.065096 0.945982
-1.054754 -0.211852 0.443591 -0.877102 -0.163610 0.451521
-1.066804 -0.215669 0.217971 -0.978851 -0.204382 0.003693
-0.411546 -0.071585 -1.028786 -0.368084 -0.455916 -0.810297
-0.215989 -0.025405 -1.154734 -0.271004 -0.513535 -0.814112
-1.043752 -0.213560 0.001748 -0.981658 -0.143742 -0.125126
-1.007462 -0.204315 -0.207444 -0.986297 -0.164708 -0.007263
-0.195728 -0.033036 1.023318 -0.277474 -0.197363 0.940214
-0.383786 -0.074966 0.940181 -0.120273 -0.185522 0.975219
-1.042282 -0.202518 -0.457197 -0.979644 -0.170324 -0.106143
-0.632341 -0.120942 0.960149 -0.314127 -0.254219 0.914670
-0.984660 -0.196659 -0.683698 -0.741111 -0.057985 -0.668844
-0.785375 -0.156649 0.814859 -0.773095 -0.241401 0.586535
-0.733739 -0.143225 -0.747672 -0.520615 -0.198004 -0.830470
-0.882242 -0.179123 0.602084 -0.800439 -0.129368 0.585223
-0.598062 -0.112376 -0.929213 -0.501755 -0.435377 -0.747429
0.000000 0.007562 1.070749 0.000000 0.018433 0.999817
0.000000 0.023083 -1.220286 0.000000 -0.441786 -0.897092
4 0 1 2 3
4 4 5 6 7
4 8 0 3 9
4 10 4 7 11
4 12 8 9 13
4 14 10 11 15
4 16 12 13 17
4 18 14 15 19
4 20 16 17 21
4 22 18 19 23
4 24 20 21 25
4 26 24 25 27
4 1 28 29 2
4 5 26 27 6
4 2 29 30 31
4 6 27 32 33
4 3 2 31 34
4 7 6 33 35
4 9 3 34 36
4 11 7 35 37
4 13 9 36 38
4 15 11 37 39
4 17 13 38 40
4 19 15 39 41
4 21 17 40 42
4 23 19 41 43
4 25 21 42 44
4 27 25 44 32
4 40 38 45 46
4 41 39 47 48
4 42 40 46 49
4 43 41 48 50
4 44 42 49 51
4 32 44 51 52
4 31 30 53 54
4 33 32 52 55
4 34 31 54 56
4 35 33 55 57
4 36 34 56 58
4 37 35 57 59
4 38 36 58 45
4 39 37 59 47
4 55 52 60 61
4 56 54 62 63
4 57 55 61 64
4 58 56 63 65
4 59 57 64 66
4 45 58 65 67
4 47 59 66 68
4 46 45 67 69
4 48 47 68 70
4 49 46 69 71
4 50 48 70 72
4 51 49 71 73
4 52 51 73 60
4 54 53 74 62
4 70 68 75 76
4 71 69 77 78
4 72 70 76 79
4 73 71 78 80
4 60 73 80 81
4 62 74 82 83
4 61 60 81 84
4 63 62 83 85
4 64 61 84 86
4 65 63 85 87
4 66 64 86 88
4 67 65 87 89
4 68 66 88 75
4 69 67 89 77
4 85 83 90 91
4 86 84 92 93
4 87 85 91 94
4 88 86 93 95
4 89 87 94 96
4 75 88 95 97
4 77 89 96 98
4 76 75 97 99
4 78 77 98 100
4 79 76 99 101
4 80 78 100 102
4 81 80 102 103
4 83 82 104 90
4 84 81 103 92
4 100 98 105 106
4 101 99 107 108
4 102 100 106 109
4 103 102 109 110
4 90 104 111 112
4 92 103 110 113
4 91 90 112 114
4 93 92 113 115
4 94 91 114 116
4 95 93 115 117
4 96 94 116 118
4 97 95 117 119
4 98 96 118 105
4 99 97 119 107
4 115 113 120 121
4 116 114 122 123
4 117 115 121 124
4 118 116 123 125
4 119 117 124 126
4 105 118 125 127
4 107 119 126 128
4 106 105 127 129
4 108 107 128 130
4 109 106 129 131
4 110 109 131 132
4 112 111 133 134
4 113 110 132 120
4 114 112 134 122
4 130 128 135 136
4 131 129 137 138
4 132 131 138 139
4 134 133 140 141
4 120 132 139 142
4 122 134 141 143
4 121 120 142 144
4 123 122 143 145
4 124 121 144 146
4 125 123 145 147
4 126 124 146 148
4 127 125 147 149
4 128 126 148 135
4 129 127 149 137
4 146 144 150 151
4 147 145 152 153
4 148 146 151 154
4 149 147 153 155
4 135 148 154 156
4 137 149 155 157
4 136 135 156 158
4 138 137 157 159
4 139 138 159 160
4 141 140 161 162
4 142 139 160 163
4 143 141 162 164
4 144 142 163 150
4 145 143 164 152
4 160 159 165 166
4 162 161 167 168
4 163 160 166 169
4 164 162 168 170
4 150 163 169 171
4 152 164 170 172
4 151 150 171 173
4 153 152 172 174
4 154 151 173 175
4 155 153 174 176
4 156 154 175 177
4 157 155 176 178
4 158 156 177 179
4 159 157 178 165
4 174 172 180 181
4 175 173 182 183
4 176 174 181 184
4 177 175 183 185
4 178 176 184 186
4 179 177 185 187
4 165 178 186 188
4 166 165 188 189
4 168 167 190 191
4 169 166 189 192
4 170 168 191 193
4 171 169 192 194
4 172 170 193 180
4 173 171 194 182
4 189 188 195 196
4 191 190 197 198
4 192 189 196 199
4 193 191 198 200
4 194 192 199 201
4 180 193 200 202
4 182 194 201 203
4 181 180 202 204
4 183 182 203 205
4 184 181 204 206
4 185 183 205 207
4 186 184 206 208
4 187 185 207 209
4 188 186 208 195
4 205 203 210 211
4 206 204 212 213
4 207 205 211 214
4 208 206 213 215
4 209 207 214 216
4 195 208 215 217
4 196 195 217 218
4 198 197 219 220
4 199 196 218 221
4 200 198 220 222
4 201 199 221 223
4 202 200 222 224
4 203 201 223 210
4 204 202 224 212
4 220 219 225 226
4 221 218 227 228
4 222 220 226 229
4 223 221 228 230
4 224 222 229 231
4 210 223 230 232
4 212 224 231 233
4 211 210 232 234
4 213 212 233 235
4 214 211 234 236
4 215 213 235 237
4 216 214 236 238
4 217 215 237 239
4 218 217 239 227
4 235 233 240 241
4 236 234 242 243
4 237 235 241 244
4 238 236 243 245
4 239 237 244 246
4 227 239 246 247
4 226 225 248 249
4 228 227 247 250
4 229 226 249 251
4 230 228 250 252
4 231 229 251 253
4 232 230 252 254
4 233 231 253 240
4 234 232 254 242
4 250 247 255 256
4 251 249 257 258
4 252 250 256 259
4 253 251 258 260
4 254 252 259 261
4 240 253 260 262
4 242 254 261 263
4 241 240 262 264
4 243 242 263 265
4 244 241 264 266
4 245 243 265 267
4 246 244 266 268
4 247 246 268 255
4 249 248 269 257
4 265 263 270 271
4 266 264 272 273
4 267 265 271 274
4 268 266 273 275
4 255 268 275 276
4 257 269 277 278
4 256 255 276 279
4 258 257 278 280
4 259 256 279 281
4 260 258 280 282
4 261 259 281 283
4 262 260 282 284
4 263 261 283 270
4 264 262 284 272
4 281 279 285 286
4 282 280 287 288
4 283 281 286 289
4 284 282 288 290
4 270 283 289 291
4 272 284 290 292
4 271 270 291 293
4 273 272 292 294
4 274 271 293 295
4 275 273 294 296
4 276 275 296 297
4 278 277 298 299
4 279 276 297 285
4 280 278 299 287
4 295 293 300 301
4 296 294 302 303
4 297 296 303 304
4 299 298 305 306
4 285 297 304 307
4 287 299 306 308
4 286 285 307 309
4 288 287 308 310
4 289 286 309 311
4 290 288 310 312
4 291 289 311 313
4 292 290 312 314
4 293 291 313 300
4 294 292 314 302
4 310 308 315 316
4 311 309 317 318
4 312 310 316 319
4 313 311 318 320
4 314 312 319 321
4 300 313 320 322
4 302 314 321 323
4 301 300 322 324
4 303 302 323 325
4 304 303 325 326
4 306 305 327 328
4 307 304 326 329
4 308 306 328 315
4 309 307 329 317
4 325 323 330 331
4 326 325 331 332
4 328 327 333 334
4 329 326 332 335
4 315 328 334 336
4 317 329 335 337
4 316 315 336 338
4 318 317 337 339
4 319 316 338 340
4 320 318 339 341
4 321 319 340 342
4 322 320 341 343
4 323 321 342 330
4 324 322 343 344
4 339 337 345 346
4 340 338 347 348
4 341 339 346 349
4 342 340 348 350
4 343 341 349 351
4 330 342 350 352
4 344 343 351 353
4 331 330 352 354
4 332 331 354 355
4 334 333 356 357
4 335 332 355 358
4 336 334 357 359
4 337 335 358 345
4 338 336 359 347
4 355 354 360 361
4 357 356 362 363
4 358 355 361 364
4 359 357 363 365
4 345 358 364 366
4 347 359 365 367
4 346 345 366 368
4 348 347 367 369
4 349 346 368 370
4 350 348 369 371
4 351 349 370 372
4 352 350 371 373
4 353 351 372 374
4 354 352 373 360
4 369 367 375 376
4 370 368 377 378
4 371 369 376 379
4 372 370 378 380
4 373 371 379 381
4 374 372 380 382
4 360 373 381 383
4 361 360 383 384
4 363 362 385 386
4 364 361 384 387
4 365 363 386 388
4 366 364 387 389
4 367 365 388 375
4 368 366 389 377
4 384 383 390 391
4 386 385 392 393
4 387 384 391 394
4 388 386 393 395
4 389 387 394 396
4 375 388 395 397
4 377 389 396 398
4 376 375 397 399
4 378 377 398 400
4 379 376 399 401
4 380 378 400 402
4 381 379 401 403
4 382 380 402 404
4 383 381 403 390
4 400 398 405 406
4 401 399 407 408
4 402 400 406 409
4 403 401 408 410
4 404 402 409 411
4 390 403 410 412
4 391 390 412 413
4 393 392 414 415
4 394 391 413 416
4 395 393 415 417
4 396 394 416 418
4 397 395 417 419
4 398 396 418 405
4 399 397 419 407
4 416 413 420 421
4 417 415 422 423
4 418 416 421 424
4 419 417 423 425
4 405 418 424 426
4 407 419 425 427
4 406 405 426 428
4 408 407 427 429
4 409 406 428 430
4 410 408 429 431
4 411 409 430 432
4 412 410 431 433
4 413 412 433 420
4 415 414 434 422
4 430 428 435 436
4 431 429 437 438
4 432 430 436 439
4 433 431 438 440
4 420 433 440 441
4 422 434 442 443
4 421 420 441 444
4 423 422 443 445
4 424 421 444 446
4 425 423 445 447
4 426 424 446 448
4 427 425 447 449
4 428 426 448 435
4 429 427 449 437
4 445 443 450 451
4 446 444 452 453
4 447 445 451 454
4 448 446 453 455
4 449 447 454 456
4 435 448 455 457
4 437 449 456 458
4 436 435 457 459
4 438 437 458 460
4 439 436 459 461
4 440 438 460 462
4 441 440 462 463
4 443 442 464 450
4 444 441 463 452
4 460 458 465 466
4 461 459 467 468
4 462 460 466 469
4 463 462 469 470
4 450 464 471 472
4 452 463 470 473
4 451 450 472 474
4 453 452 473 475
4 454 451 474 476
4 455 453 475 477
4 456 454 476 478
4 457 455 477 479
4 458 456 478 465
4 459 457 479 467
3 28 480 29
3 481 22 23
3 29 480 30
3 481 23 43
3 30 480 53
3 481 43 50
3 53 480 74
3 481 50 72
3 74 480 82
3 481 72 79
3 82 480 104
3 481 79 101
3 104 480 111
3 481 101 108
3 111 480 133
3 481 108 130
3 133 480 140
3 481 130 136
3 140 480 161
3 481 136 158
3 161 480 167
3 481 158 179
3 167 480 190
3 481 179 187
3 190 480 197
3 481 187 209
3 197 480 219
3 481 209 216
3 219 480 225
3 481 216 238
3 225 480 248
3 481 238 245
3 248 480 269
3 481 245 267
3 269 480 277
3 481 267 274
3 277 480 298
3 481 274 295
3 298 480 305
3 481 295 301
3 305 480 327
3 481 301 324
3 327 480 333
3 481 324 344
3 333 480 356
3 481 344 353
3 356 480 362
3 481 353 374
3 362 480 385
3 481 374 382
3 385 480 392
3 481 382 404
3 392 480 414
3 481 404 411
3 414 480 434
3 481 411 432
3 434 480 442
3 481 432 439
3 442 480 464
3 481 439 461
3 464 480 471
3 481 461 468
4 475 473 5 4
4 476 474 0 8
4 477 475 4 10
4 478 476 8 12
4 479 477 10 14
4 465 478 12 16
4 467 479 14 18
4 466 465 16 20
4 468 467 18 22
4 469 466 20 24
3 471 480 28
3 481 468 22
4 470 469 24 26
4 28 1 472 471
4 473 470 26 5
4 474 472 1 0
