ply
format ascii 1.0
comment Created by Blender 2.76 (sub 0) - www.blender.org, source file: ''
element vertex 482
property float x
property float y
property float z
property float nx
property float ny
property float nz
element face 512
property list uchar uint vertex_indices
end_header
-0.522937 0.122073 1.034743 -0.672292 0.136967 0.727470
-0.315573 0.109843 1.178156 -0.412214 0.355449 0.838862
-0.493772 0.308611 0.974504 -0.399884 0.422193 0.813501
-0.679568 0.347922 0.837456 -0.714408 0.171361 0.678396
-0.832151 0.016830 -0.547630 -0.825922 -0.047578 -0.561724
-0.902844 0.030665 -0.395225 -0.973235 -0.024873 -0.228370
-0.894190 0.265084 -0.381749 -0.882717 -0.186377 0.431318
-0.921366 0.144136 -0.469821 -0.933744 -0.150975 -0.324473
-0.620252 0.069883 0.907219 -0.844752 -0.114811 0.522660
-0.675813 0.280706 0.807491 -0.841731 0.014130 0.539689
-0.737466 0.051305 -0.657029 -0.631306 0.031556 -0.774865
-0.791596 0.155126 -0.610893 -0.641163 0.075686 -0.763634
-0.776025 0.069136 0.652429 -0.908017 -0.309366 0.282449
-0.806905 0.318849 0.599438 -0.911405 -0.038179 0.409711
-0.627189 0.114183 -0.719225 -0.478164 0.124729 -0.869350
-0.638603 0.257423 -0.687784 -0.487411 0.187109 -0.852840
-0.855086 0.129041 0.432482 -0.916623 -0.214606 0.337199
-0.876339 0.394722 0.393835 -0.963439 -0.067812 0.259102
-0.469964 0.139458 -0.786630 -0.336222 0.183813 -0.923643
-0.473790 0.234205 -0.767692 -0.320994 0.198828 -0.925962
-0.907195 0.151975 0.212930 -0.959410 -0.111270 0.259011
-0.924435 0.415359 0.194553 -0.991668 -0.068941 0.108798
-0.263640 0.141421 -0.841461 -0.174688 0.248604 -0.952696
-0.264388 0.195716 -0.825616 -0.159673 0.247780 -0.955535
-0.932791 0.127956 -0.008270 -0.998047 -0.027161 0.055971
-0.942102 0.399411 -0.005919 -0.999542 0.020081 -0.021668
-0.930195 0.088269 -0.215141 -0.994842 0.017945 -0.099582
-0.924757 0.355759 -0.201348 -0.989227 0.062380 -0.132267
-0.127345 0.101327 1.242230 -0.107242 0.471450 0.875332
-0.144296 0.165575 1.198537 -0.075930 0.608356 0.790002
-0.168835 0.233991 1.139513 -0.132267 0.563189 0.815638
-0.546889 0.445434 0.868456 -0.275887 0.211097 0.937712
-0.899868 0.539788 -0.210093 -0.938322 0.244942 -0.243965
-0.884242 0.430773 -0.366634 -0.934538 0.318766 -0.158086
-0.558111 0.457535 0.901367 -0.438856 0.101108 0.892819
-0.984889 0.272600 -0.384589 -0.930967 -0.068880 0.358501
-0.764463 0.461294 0.692585 -0.820368 0.036287 0.570635
-0.857977 0.203343 -0.544269 -0.700400 0.146245 -0.698569
-0.848431 0.571238 0.524256 -0.950133 -0.062014 0.305582
-0.620631 0.379195 -0.670539 -0.498733 0.249092 -0.830164
-0.959243 0.647656 0.193332 -0.991760 0.109287 0.066744
-0.456966 0.319545 -0.755163 -0.289407 0.227180 -0.929838
-0.943081 0.630096 0.108241 -0.985107 0.152257 -0.079714
-0.253953 0.246610 -0.811681 -0.135228 0.261299 -0.955718
-0.918596 0.602801 -0.019029 -0.968749 0.199957 -0.146733
-0.857146 0.794297 0.521097 -0.889462 0.199896 0.410932
-0.890964 0.829275 0.325658 -0.947996 0.305246 0.089908
-0.573104 0.485299 -0.664588 -0.459792 0.299478 -0.835994
-0.420766 0.395827 -0.745928 -0.233345 0.265511 -0.935423
-0.894552 0.776382 0.141271 -0.884182 0.424818 -0.194128
-0.232800 0.293754 -0.798605 -0.098392 0.286355 -0.953032
-0.873693 0.734512 -0.024804 -0.868923 0.426069 -0.251778
-0.847427 0.674482 -0.215391 -0.829371 0.439894 -0.344401
-0.177691 0.295056 1.092760 -0.297922 0.361461 0.883480
-0.452200 0.520266 0.907461 -0.274789 0.162420 0.947661
-0.797832 0.590093 -0.387278 -0.755028 0.457411 -0.469741
-0.540615 0.645936 0.885049 -0.464675 0.141545 0.874081
-0.871899 0.429891 -0.424865 -0.775140 0.432234 -0.460768
-0.837671 0.636383 0.593569 -0.865139 0.026765 0.500748
-0.774187 0.399155 -0.539856 -0.634938 0.327128 -0.699850
-0.740408 0.822224 -0.219584 -0.694968 0.588092 -0.413648
-0.686388 0.737289 -0.394555 -0.640492 0.564440 -0.520707
-0.313601 0.588642 0.966504 -0.049593 0.416730 0.907651
-0.507826 0.863053 0.821798 -0.301218 0.365795 0.880581
-0.641629 0.674418 -0.511694 -0.617206 0.518387 -0.591845
-0.629107 0.970254 0.732865 -0.536607 0.396069 0.745048
-0.608024 0.654588 -0.564628 -0.541215 0.462844 -0.702017
-0.723896 1.063990 0.567746 -0.711509 0.491867 0.501755
-0.502759 0.575060 -0.662107 -0.356395 0.366344 -0.859493
-0.785516 1.069556 0.379532 -0.846553 0.529496 0.054262
-0.367449 0.464801 -0.735726 -0.154271 0.310404 -0.937986
-0.788972 0.980063 0.174721 -0.807886 0.532792 -0.251778
-0.201351 0.336956 -0.785282 -0.050264 0.317057 -0.947050
-0.771704 0.894143 -0.028006 -0.752525 0.571062 -0.327921
-0.155647 0.339532 1.075427 -0.196417 0.393750 0.897977
-0.411385 0.655449 -0.652726 -0.202155 0.444502 -0.872646
-0.298155 0.528005 -0.720825 -0.064913 0.357067 -0.931791
-0.646353 1.242963 0.372685 -0.645985 0.763329 0.000793
-0.648121 1.167386 0.172475 -0.618915 0.701895 -0.352489
-0.160314 0.375716 -0.771089 -0.000885 0.342814 -0.939390
-0.621351 1.051469 -0.031152 -0.581805 0.695761 -0.421155
-0.591073 0.961040 -0.222817 -0.538469 0.701041 -0.467452
-0.116645 0.371978 1.073782 -0.107547 0.488754 0.865749
-0.311341 0.763282 0.801123 0.171819 0.283578 0.943419
-0.544557 0.861686 -0.398752 -0.487136 0.677023 -0.551653
-0.420797 0.849247 0.838072 0.084994 0.331278 0.939665
-0.502999 0.779916 -0.526398 -0.442183 0.654347 -0.613392
-0.502369 0.961374 0.769305 -0.286843 0.494369 0.820521
-0.479639 0.751281 -0.574700 -0.343333 0.574511 -0.742973
-0.593639 1.207407 0.557643 -0.507431 0.680563 0.528489
-0.251577 0.844443 0.760896 -0.027802 -0.132908 0.990722
-0.294849 0.904693 0.885441 -0.114566 -0.080966 0.990081
-0.378142 0.953247 -0.400985 -0.307627 0.748436 -0.587512
-0.343671 0.853753 -0.534446 -0.258522 0.698630 -0.667135
-0.364269 1.054325 0.763839 -0.401746 0.490524 0.773247
-0.288458 0.832564 -0.564895 -0.132359 0.622211 -0.771569
-0.432978 1.314437 0.548821 -0.402692 0.790185 0.461989
-0.289726 0.742814 -0.620082 -0.099216 0.496780 -0.862148
-0.465749 1.348912 0.361740 -0.362011 0.928465 -0.082888
-0.211407 0.585059 -0.699801 -0.005860 0.376476 -0.926389
-0.456583 1.272958 0.162918 -0.326182 0.857143 -0.398541
-0.111190 0.408085 -0.757025 0.032960 0.356609 -0.933653
-0.434791 1.164336 -0.036452 -0.351665 0.816492 -0.457869
-0.412498 1.065394 -0.225606 -0.353710 0.786676 -0.505966
-0.076276 0.397609 1.072621 -0.248238 0.434156 0.865932
-0.247070 1.378496 0.349773 -0.103000 0.975829 -0.192694
-0.231868 1.302862 0.150455 -0.097446 0.926969 -0.362194
-0.108763 0.631000 -0.676183 0.004181 0.352824 -0.935667
-0.056735 0.430195 -0.746221 0.033692 0.359416 -0.932554
-0.222116 1.226901 -0.043155 -0.154180 0.892148 -0.424543
-0.212311 1.130428 -0.227137 -0.165349 0.830561 -0.531754
-0.038503 0.415871 1.068678 -0.280007 0.391522 0.876522
-0.135730 0.837473 0.850575 -0.316263 0.083621 0.944945
-0.202593 1.034465 -0.357269 -0.131840 0.780541 -0.611011
-0.158417 1.084175 0.874953 -0.314249 0.272927 0.909238
-0.176539 0.930333 -0.488668 -0.130772 0.742210 -0.657247
-0.203868 1.287459 0.720167 -0.318522 0.664510 0.675954
-0.138959 0.913862 -0.506409 -0.071200 0.638386 -0.766381
-0.239356 1.392185 0.539886 -0.234535 0.936857 0.259316
-0.140052 0.778716 -0.618339 -0.032960 0.515244 -0.856380
0.000000 1.081463 -0.307904 0.000000 0.780511 -0.625111
0.000000 0.958100 -0.459534 0.000000 0.670278 0.742058
0.000000 1.151117 0.864202 0.000000 0.409528 0.912290
0.000001 1.362540 0.713949 0.000000 0.794824 0.606800
0.000000 1.030800 -0.385969 0.000000 -0.703269 -0.710898
0.000001 1.413095 0.537707 0.000000 0.991852 0.127262
0.000000 0.780397 -0.627842 0.000000 0.506974 -0.861934
0.000000 1.363093 0.342459 0.000000 0.970611 -0.240638
0.000000 0.649633 -0.665130 0.000000 0.329203 -0.944243
0.000000 1.308016 0.145463 0.000000 0.945219 -0.326334
0.000000 0.438105 -0.742131 0.000000 0.358592 -0.933470
0.000000 1.245348 -0.046435 0.000000 0.916410 -0.400189
0.000000 1.154760 -0.224830 0.000000 0.841121 -0.540819
0.000000 0.422325 1.066838 0.000000 0.395184 0.918577
0.000001 0.799688 0.946937 0.000000 0.243477 0.969878
0.108764 0.631000 -0.676184 -0.004181 0.352824 -0.935667
0.056736 0.430194 -0.746221 -0.033692 0.359416 -0.932554
0.231869 1.302862 0.150455 0.097446 0.926969 -0.362194
0.222117 1.226901 -0.043155 0.154180 0.892148 -0.424543
0.212312 1.130428 -0.227137 0.165349 0.830561 -0.531754
0.038503 0.415871 1.068678 0.280007 0.391522 0.876522
0.135731 0.837474 0.850574 0.316263 0.083621 0.944945
0.202594 1.034465 -0.357270 0.131840 0.780541 -0.611042
0.158418 1.084175 0.874953 0.314249 0.272927 0.909238
0.176540 0.930333 -0.488669 0.130772 0.742210 -0.657247
0.203869 1.287458 0.720167 0.318522 0.664510 0.675954
0.138960 0.913862 -0.506409 0.071200 0.638386 -0.766381
0.239357 1.392185 0.539886 0.234535 0.936857 0.259316
0.140053 0.778716 -0.618339 0.032960 0.515244 -0.856380
0.247071 1.378496 0.349773 0.103000 0.975829 -0.192694
0.343672 0.853753 -0.534446 0.258522 0.698630 -0.667135
0.288459 0.832564 -0.564895 0.132359 0.622211 -0.771569
0.364269 1.054325 0.763839 0.401746 0.490524 0.773247
0.432979 1.314437 0.548821 0.402692 0.790185 0.461989
0.289727 0.742813 -0.620082 0.099216 0.496780 -0.862148
0.465750 1.348912 0.361740 0.362011 0.928465 -0.082888
0.211408 0.585059 -0.699801 0.005860 0.376476 -0.926389
0.456584 1.272958 0.162918 0.326182 0.857143 -0.398541
0.111191 0.408085 -0.757025 -0.032960 0.356609 -0.933653
0.434791 1.164336 -0.036452 0.351665 0.816492 -0.457869
0.412499 1.065394 -0.225606 0.353710 0.786676 -0.505966
0.076277 0.397609 1.072621 0.248238 0.434156 0.865932
0.251578 0.844443 0.760896 0.027802 -0.132908 0.990722
0.378142 0.953247 -0.400985 0.307627 0.748436 -0.587512
0.294849 0.904693 0.885441 0.114536 -0.080966 0.990081
0.621352 1.051468 -0.031152 0.581805 0.695761 -0.421155
0.591074 0.961039 -0.222817 0.538469 0.701041 -0.467452
0.116646 0.371978 1.073782 0.107547 0.488754 0.865749
0.311341 0.763282 0.801123 -0.171819 0.283578 0.943419
0.544557 0.861686 -0.398752 0.487136 0.677023 -0.551653
0.420797 0.849247 0.838072 -0.084994 0.331278 0.939665
0.502999 0.779916 -0.526398 0.442183 0.654347 -0.613392
0.502369 0.961374 0.769305 0.286843 0.494369 0.820521
0.479640 0.751280 -0.574700 0.343333 0.574511 -0.742973
0.593640 1.207406 0.557643 0.507431 0.680563 0.528489
0.411385 0.655449 -0.652726 0.202155 0.444502 -0.872646
0.646354 1.242963 0.372685 0.645985 0.763329 0.000793
0.298155 0.528005 -0.720825 0.064913 0.357036 -0.931791
0.648122 1.167386 0.172475 0.618915 0.701895 -0.352489
0.160314 0.375716 -0.771090 0.000885 0.342814 -0.939390
0.629107 0.970254 0.732865 0.536607 0.396069 0.745048
0.723897 1.063989 0.567746 0.711509 0.491867 0.501755
0.608025 0.654588 -0.564628 0.541215 0.462844 -0.702017
0.502759 0.575060 -0.662107 0.356395 0.366344 -0.859493
0.785516 1.069556 0.379532 0.846553 0.529496 0.054262
0.367450 0.464800 -0.735726 0.154271 0.310373 -0.937986
0.788972 0.980063 0.174721 0.807886 0.532792 -0.251778
0.201352 0.336955 -0.785282 0.050264 0.317057 -0.947050
0.771704 0.894143 -0.028006 0.752525 0.571062 -0.327921
0.740409 0.822224 -0.219584 0.694968 0.588092 -0.413648
0.155648 0.339532 1.075426 0.196417 0.393750 0.897977
0.313602 0.588642 0.966505 0.049593 0.416730 0.907651
0.686388 0.737288 -0.394555 0.640492 0.564440 -0.520707
0.507826 0.863052 0.821798 0.301218 0.365795 0.880581
0.641630 0.674418 -0.511694 0.617206 0.518387 -0.591845
0.873693 0.734511 -0.024804 0.868923 0.426038 -0.251778
0.847427 0.674482 -0.215391 0.829371 0.439894 -0.344401
0.177691 0.295056 1.092760 0.297922 0.361461 0.883480
0.452201 0.520267 0.907461 0.274789 0.162420 0.947661
0.797832 0.590093 -0.387278 0.755028 0.457411 -0.469741
0.540616 0.645936 0.885049 0.464675 0.141545 0.874081
0.871900 0.429891 -0.424865 0.775140 0.432234 -0.460768
0.837671 0.636382 0.593569 0.865139 0.026734 0.500748
0.774188 0.399154 -0.539856 0.634938 0.327128 -0.699850
0.857147 0.794296 0.521096 0.889462 0.199896 0.410932
0.573104 0.485299 -0.664588 0.459792 0.299478 -0.835994
0.890964 0.829274 0.325657 0.947996 0.305246 0.089908
0.420767 0.395827 -0.745928 0.233345 0.265511 -0.935423
0.894552 0.776381 0.141271 0.884182 0.424818 -0.194128
0.232801 0.293754 -0.798605 0.098392 0.286355 -0.953032
0.857977 0.203343 -0.544269 0.700430 0.146245 -0.698569
0.620631 0.379194 -0.670539 0.498733 0.249092 -0.830164
0.848431 0.571238 0.524257 0.950133 -0.062014 0.305582
0.959243 0.647656 0.193332 0.991760 0.109287 0.066744
0.456967 0.319545 -0.755163 0.289407 0.227180 -0.929838
0.943081 0.630096 0.108241 0.985107 0.152257 -0.079714
0.253953 0.246610 -0.811681 0.135228 0.261299 -0.955718
0.918596 0.602801 -0.019029 0.968749 0.199957 -0.146733
0.899868 0.539788 -0.210093 0.938322 0.244942 -0.243965
0.168836 0.233990 1.139513 0.132267 0.563189 0.815638
0.546890 0.445434 0.868456 0.275887 0.211097 0.937712
0.884242 0.430773 -0.366634 0.934538 0.318766 -0.158086
0.558112 0.457534 0.901367 0.438856 0.101108 0.892819
0.984889 0.272600 -0.384589 0.930967 -0.068880 0.358501
0.764463 0.461294 0.692585 0.820368 0.036287 0.570635
0.144296 0.165575 1.198537 0.075930 0.608356 0.790002
0.493773 0.308611 0.974504 0.399884 0.422193 0.813501
0.924757 0.355759 -0.201348 0.989227 0.062380 -0.132267
0.894190 0.265084 -0.381749 0.882717 -0.186377 0.431318
0.679568 0.347922 0.837456 0.714408 0.171361 0.678396
0.921366 0.144136 -0.469822 0.933744 -0.150975 -0.324473
0.675813 0.280706 0.807491 0.841731 0.014130 0.539689
0.791596 0.155126 -0.610893 0.641163 0.075686 -0.763634
0.806906 0.318848 0.599438 0.911405 -0.038179 0.409711
0.638603 0.257422 -0.687784 0.487411 0.187109 -0.852840
0.876339 0.394722 0.393835 0.963439 -0.067812 0.259102
0.473791 0.234205 -0.767692 0.320994 0.198828 -0.925962
0.924435 0.415359 0.194553 0.991668 -0.068941 0.108798
0.264389 0.195716 -0.825616 0.159673 0.247780 -0.955535
0.942102 0.399411 -0.005919 0.999542 0.020081 -0.021668
0.776025 0.069136 0.652429 0.908017 -0.309366 0.282449
0.855087 0.129041 0.432482 0.916623 -0.214606 0.337199
0.627189 0.114183 -0.719225 0.478164 0.124729 -0.869350
0.469964 0.139458 -0.786630 0.336222 0.183813 -0.923643
0.907195 0.151975 0.212930 0.959410 -0.111270 0.259011
0.263640 0.141421 -0.841461 0.174688 0.248604 -0.952696
0.932791 0.127956 -0.008270 0.998047 -0.027161 0.055971
0.930195 0.088269 -0.215141 0.994842 0.017945 -0.099582
0.127345 0.101327 1.242230 0.107242 0.471450 0.875332
0.315573 0.109843 1.178156 0.412214 0.355449 0.838862
0.902844 0.030665 -0.395225 0.973235 -0.024873 -0.228370
0.522937 0.122073 1.034743 0.672292 0.136967 0.727470
0.832151 0.016830 -0.547630 0.825922 -0.047578 -0.561724
0.620252 0.069883 0.907219 0.844752 -0.114811 0.522660
0.737466 0.051305 -0.657029 0.631306 0.031556 -0.774865
0.933103 -0.382912 -0.341941 0.986236 -0.088443 -0.139592
0.889525 -0.297349 -0.473345 0.901028 0.007569 -0.433668
0.257707 -0.022084 1.241259 0.427015 0.146336 0.892300
0.409739 -0.075983 1.147714 0.638142 -0.008118 0.769860
0.807243 -0.201463 -0.580152 0.758690 0.010346 -0.651326
0.556587 -0.123302 0.984144 0.831568 -0.232734 0.504288
0.702177 -0.124161 -0.686307 0.627247 -0.009888 -0.778741
0.588853 -0.212274 0.765791 0.861019 -0.492904 0.125004
0.585835 -0.042407 -0.763791 0.485885 0.062288 -0.871792
0.416472 -0.366906 0.671275 0.929380 -0.342021 0.138676
0.443870 0.034346 -0.815803 0.344523 0.164037 -0.924314
0.886612 -0.253396 0.168959 0.900357 -0.200781 0.385968
0.251831 0.084346 -0.860056 0.184271 0.254158 -0.949431
0.931639 -0.373559 -0.125558 0.987640 -0.127659 0.090823
0.114754 0.040455 1.271639 0.104312 0.330454 0.938017
0.530648 -0.183493 -0.797444 0.476272 -0.042543 -0.878262
0.398522 -0.074865 -0.851929 0.346904 0.107669 -0.931669
0.450976 -0.566275 0.542329 0.894833 0.353191 0.272958
0.830774 -0.626617 0.083359 0.912320 -0.191015 0.362133
0.229807 0.026651 -0.880730 0.187170 0.244392 -0.951415
0.860218 -0.712469 -0.207388 0.932707 -0.349803 0.087436
0.859539 -0.698991 -0.425194 0.928098 -0.318400 -0.192846
0.100201 -0.017893 1.293912 0.089511 0.240944 0.966399
0.226470 -0.131120 1.260380 0.439528 0.000366 0.898190
0.826256 -0.611337 -0.582236 0.765160 -0.155950 -0.624622
0.363628 -0.225338 1.165208 0.619190 -0.157048 0.769341
0.753066 -0.424031 -0.630821 0.601215 -0.033845 -0.798334
0.496123 -0.303877 1.007145 0.863613 -0.263680 0.429640
0.648973 -0.285922 -0.708279 0.551439 -0.088107 -0.829524
0.414020 -0.449767 0.751309 0.991180 0.061617 -0.117130
0.729912 -0.815356 -0.602749 0.519639 -0.425916 -0.740623
0.670904 -0.612364 -0.662819 0.299570 -0.179785 -0.936949
0.309203 -0.357689 1.170539 0.579669 -0.269570 0.768944
0.434827 -0.462280 0.995429 0.860134 -0.198950 0.469588
0.577863 -0.423677 -0.718238 0.403729 -0.207953 -0.890896
0.531747 -0.570136 0.722737 0.974090 0.141240 0.176550
0.466185 -0.300023 -0.815497 0.435926 -0.175726 -0.882626
0.670681 -0.647601 0.440003 0.902951 -0.089785 0.420240
0.343886 -0.171450 -0.881321 0.332347 0.014039 -0.943022
0.727393 -0.828894 0.091064 0.834223 -0.438124 0.334758
0.199994 -0.027925 -0.901184 0.177129 0.211219 -0.961241
0.755924 -0.915246 -0.206246 0.797937 -0.594836 0.096866
0.754996 -0.897655 -0.423636 0.772668 -0.593005 -0.226508
0.083841 -0.071252 1.310758 0.083010 0.185797 0.979064
0.189742 -0.229045 1.272485 0.433149 -0.102939 0.895413
0.284185 -0.248587 -0.899785 0.295175 -0.088046 -0.951353
0.165017 -0.074985 -0.918361 0.152379 0.165532 -0.974334
0.545357 -0.902462 0.323577 0.625629 -0.684530 0.374096
0.628586 -1.035817 -0.156316 0.452040 -0.883938 0.119480
0.627732 -1.033274 -0.392574 0.276467 -0.919889 -0.278085
0.066222 -0.117646 1.323329 0.064669 0.131108 0.989227
0.150396 -0.313535 1.275812 0.325358 -0.326182 0.887539
0.608760 -0.936761 -0.568984 0.074648 -0.682089 -0.727409
0.268207 -0.451611 1.155767 0.345653 -0.590625 0.729118
0.563832 -0.722271 -0.638615 -0.024659 -0.378002 -0.925443
0.433894 -0.591827 0.931592 0.630238 -0.526414 0.570635
0.488147 -0.530664 -0.714463 0.237403 -0.378521 -0.894589
0.404897 -0.768650 0.758397 0.716453 -0.582446 0.383984
0.390621 -0.394415 -0.824128 0.370006 -0.312052 -0.875027
0.461437 -0.829962 0.521281 0.688772 -0.577136 0.438704
0.306008 -0.413995 1.114731 0.040407 -0.783624 0.619892
0.372192 -0.725186 0.890648 0.319865 -0.655110 0.684439
0.438447 -0.775469 -0.584368 -0.071902 -0.548357 -0.833125
0.381220 -0.610540 -0.704608 0.194830 -0.520249 -0.831477
0.131023 -0.975809 0.830469 -0.244240 -0.168187 0.954985
0.304475 -0.467231 -0.827071 0.296731 -0.421461 -0.856899
0.297849 -0.983575 0.545833 0.636311 -0.655477 0.406690
0.219126 -0.307508 -0.910737 0.238838 -0.177252 -0.954741
0.347633 -1.005111 0.475063 0.603870 -0.715659 0.350902
0.126628 -0.112232 -0.931116 0.118534 0.122288 -0.985382
0.476384 -1.034421 -0.006747 0.278909 -0.954650 0.103916
0.480690 -1.047021 -0.274607 -0.120975 -0.972015 -0.201239
0.048299 -0.155440 1.332234 0.018891 0.066408 0.997589
0.111513 -0.382612 1.268065 0.147710 -0.661458 0.735252
0.468535 -0.951267 -0.462149 -0.308847 -0.745354 -0.590777
0.150125 -1.194428 0.392648 0.345744 -0.921690 0.175787
0.305009 -1.066629 0.100622 0.351115 -0.934721 -0.054598
0.321317 -1.031547 -0.162444 0.084231 -0.980590 -0.176946
0.031019 -0.183497 1.337924 -0.091800 -0.019196 0.995575
0.081490 -0.423040 1.248491 -0.084780 -0.907468 0.411420
0.345265 -0.958553 -0.365417 0.112980 -0.921262 -0.372143
0.265338 -0.396155 1.066085 -0.079226 -0.795648 0.600513
0.393842 -0.853116 -0.524652 0.026521 -0.679250 -0.733421
0.259488 -0.808923 0.870891 -0.558885 -0.056093 0.827326
0.268146 -0.672670 -0.696542 0.225257 -0.570299 -0.789911
0.152913 -0.987015 0.748610 0.098117 -0.667287 0.738273
0.208954 -0.519343 -0.827620 0.222510 -0.486099 -0.845058
0.169489 -1.127552 0.549358 0.242286 -0.824915 0.510636
0.149024 -0.349409 -0.917111 0.167913 -0.244697 -0.954924
0.085811 -0.138851 -0.939559 0.080142 0.089114 -0.992767
0.322702 -0.944462 -0.478759 0.348766 -0.807367 -0.475875
0.175584 -0.727720 -0.686247 0.142827 -0.612354 -0.777551
0.126064 -0.853440 0.868718 -0.005585 -0.551195 0.834346
0.139634 -0.992888 0.695133 -0.139470 -0.768853 0.624012
0.106350 -0.550966 -0.827644 0.116428 -0.525895 -0.842524
0.088449 -1.145005 0.515830 -0.206854 -0.854915 0.475692
0.075420 -0.374336 -0.920215 0.086520 -0.286203 -0.954222
0.043132 -1.239630 0.311068 -0.108890 -0.991394 -0.072237
0.043375 -0.154846 -0.944373 0.040407 0.068453 -0.996826
0.152203 -1.117421 0.116131 0.174596 -0.952849 -0.248146
0.159343 -1.063118 -0.133024 0.167272 -0.962493 -0.213446
0.014990 -0.200747 1.340955 -0.178503 -0.122745 0.976226
0.049847 -0.420171 1.225207 -0.238105 -0.945433 0.222327
0.251738 -1.009980 -0.322111 0.219672 -0.946379 -0.236793
0.134943 -0.352046 1.042442 -0.155034 -0.894864 0.418500
0.000000 -1.141281 0.092258 0.000000 -0.957183 -0.289407
0.000000 -1.082141 -0.130823 0.000000 -0.971465 -0.237037
0.000000 -0.206524 1.341883 0.000000 -0.187353 0.982269
0.000000 -0.408796 1.215289 0.000000 -0.968383 0.249428
0.000001 -1.032662 -0.315898 0.000000 -0.970061 -0.242836
0.000000 -0.323108 1.036269 0.000000 -0.923093 0.384564
0.000000 -1.016306 -0.444779 0.000000 -0.873409 -0.486953
0.000000 -0.876037 0.869392 0.000000 -0.584979 0.811029
0.000000 -0.750111 -0.681027 0.000000 -0.641285 -0.767266
0.000000 -1.015318 0.697742 0.000000 -0.803644 0.595080
0.000000 -0.561624 -0.827656 0.000000 -0.542467 -0.840052
0.000000 -1.107619 0.510921 0.000000 -0.861538 0.507675
0.000000 -0.382588 -0.921109 0.000000 -0.300058 -0.953917
0.000000 -1.152876 0.339114 0.000000 -0.995697 0.092624
0.000000 -0.160222 -0.945977 0.000000 0.061281 -0.998108
-0.126063 -0.853440 0.868718 0.005554 -0.551195 0.834346
-0.139634 -0.992888 0.695133 0.139470 -0.768853 0.624012
-0.175584 -0.727720 -0.686247 -0.142827 -0.612354 -0.777551
-0.106350 -0.550966 -0.827644 -0.116428 -0.525895 -0.842524
-0.088449 -1.145005 0.515830 0.206854 -0.854915 0.475692
-0.075419 -0.374336 -0.920215 -0.086520 -0.286203 -0.954222
-0.043131 -1.239630 0.311068 0.108890 -0.991394 -0.072237
-0.043374 -0.154846 -0.944373 -0.040407 0.068453 -0.996826
-0.152202 -1.117421 0.116131 -0.174596 -0.952849 -0.248146
-0.159343 -1.063118 -0.133024 -0.167272 -0.962493 -0.213446
-0.014990 -0.200747 1.340955 0.178503 -0.122745 0.976226
-0.049847 -0.420171 1.225207 0.238105 -0.945433 0.222327
-0.251737 -1.009980 -0.322111 -0.219672 -0.946379 -0.236763
-0.134942 -0.352046 1.042442 0.155034 -0.894864 0.418500
-0.322702 -0.944462 -0.478759 -0.348766 -0.807367 -0.475875
-0.305009 -1.066629 0.100622 -0.351115 -0.934721 -0.054598
-0.321317 -1.031547 -0.162444 -0.084231 -0.980590 -0.176946
-0.031018 -0.183497 1.337924 0.091800 -0.019196 0.995575
-0.081490 -0.423039 1.248491 0.084780 -0.907468 0.411420
-0.345265 -0.958553 -0.365417 -0.112980 -0.921262 -0.372112
-0.265337 -0.396154 1.066085 0.079226 -0.795648 0.600513
-0.393842 -0.853116 -0.524652 -0.026521 -0.679250 -0.733421
-0.259488 -0.808923 0.870891 0.558885 -0.056093 0.827326
-0.268146 -0.672670 -0.696542 -0.225257 -0.570299 -0.789911
-0.152914 -0.987014 0.748610 -0.098117 -0.667287 0.738273
-0.208954 -0.519343 -0.827620 -0.222510 -0.486099 -0.845058
-0.169488 -1.127552 0.549357 -0.242317 -0.824915 0.510636
-0.149024 -0.349409 -0.917111 -0.167913 -0.244697 -0.954924
-0.150124 -1.194428 0.392648 -0.345744 -0.921690 0.175787
-0.085810 -0.138851 -0.939559 -0.080142 0.089114 -0.992767
-0.381220 -0.610540 -0.704608 -0.194830 -0.520249 -0.831477
-0.304474 -0.467230 -0.827071 -0.296731 -0.421461 -0.856899
-0.131022 -0.975809 0.830469 0.244240 -0.168187 0.954985
-0.297849 -0.983575 0.545833 -0.636311 -0.655477 0.406690
-0.219125 -0.307508 -0.910737 -0.238838 -0.177252 -0.954741
-0.347633 -1.005111 0.475063 -0.603870 -0.715659 0.350902
-0.126627 -0.112232 -0.931116 -0.118534 0.122288 -0.985382
-0.476383 -1.034421 -0.006747 -0.278909 -0.954650 0.103916
-0.480690 -1.047021 -0.274607 0.120975 -0.972015 -0.201239
-0.048298 -0.155440 1.332235 -0.018891 0.066408 0.997589
-0.111513 -0.382612 1.268065 -0.147710 -0.661458 0.735252
-0.468534 -0.951267 -0.462149 0.308847 -0.745354 -0.590777
-0.306008 -0.413994 1.114731 -0.040407 -0.783624 0.619892
-0.438446 -0.775468 -0.584368 0.071902 -0.548357 -0.833125
-0.372191 -0.725186 0.890648 -0.319865 -0.655110 0.684439
-0.627731 -1.033274 -0.392574 -0.276467 -0.919889 -0.278085
-0.608760 -0.936760 -0.568984 -0.074648 -0.682089 -0.727409
-0.150396 -0.313535 1.275812 -0.325358 -0.326182 0.887539
-0.268207 -0.451610 1.155767 -0.345653 -0.590625 0.729118
-0.563832 -0.722271 -0.638614 0.024659 -0.378002 -0.925443
-0.433893 -0.591826 0.931592 -0.630238 -0.526414 0.570666
-0.488147 -0.530663 -0.714463 -0.237403 -0.378521 -0.894589
-0.404897 -0.768649 0.758397 -0.716453 -0.582446 0.383984
-0.390620 -0.394415 -0.824128 -0.370006 -0.312052 -0.875027
-0.461436 -0.829962 0.521281 -0.688772 -0.577136 0.438673
-0.284185 -0.248587 -0.899785 -0.295175 -0.088046 -0.951353
-0.545356 -0.902462 0.323577 -0.625629 -0.684530 0.374096
-0.165016 -0.074985 -0.918361 -0.152379 0.165532 -0.974334
-0.628586 -1.035817 -0.156316 -0.452040 -0.883938 0.119480
-0.066221 -0.117646 1.323329 -0.064699 0.131108 0.989227
-0.466185 -0.300022 -0.815497 -0.435926 -0.175726 -0.882626
-0.343886 -0.171450 -0.881321 -0.332347 0.014039 -0.943022
-0.670680 -0.647601 0.440003 -0.902951 -0.089785 0.420240
-0.727392 -0.828893 0.091065 -0.834223 -0.438124 0.334758
-0.199993 -0.027925 -0.901184 -0.177129 0.211219 -0.961241
-0.755923 -0.915245 -0.206246 -0.797937 -0.594836 0.096866
-0.754996 -0.897654 -0.423636 -0.772668 -0.593005 -0.226508
-0.083840 -0.071252 1.310758 -0.083010 0.185797 0.979064
-0.189742 -0.229045 1.272485 -0.433149 -0.102939 0.895413
-0.729912 -0.815356 -0.602749 -0.519639 -0.425916 -0.740623
-0.309202 -0.357689 1.170539 -0.579669 -0.269570 0.768944
-0.670903 -0.612364 -0.662819 -0.299570 -0.179785 -0.936949
-0.434827 -0.462280 0.995429 -0.860134 -0.198950 0.469588
-0.577863 -0.423677 -0.718238 -0.403760 -0.207953 -0.890896
-0.531747 -0.570135 0.722737 -0.974090 0.141240 0.176550
-0.226469 -0.131120 1.260380 -0.439528 0.000366 0.898190
-0.363627 -0.225338 1.165208 -0.619190 -0.157048 0.769341
-0.826255 -0.611337 -0.582236 -0.765160 -0.155950 -0.624622
-0.753065 -0.424031 -0.630820 -0.601215 -0.033845 -0.798334
-0.496122 -0.303877 1.007145 -0.863613 -0.263680 0.429640
-0.648973 -0.285922 -0.708279 -0.551439 -0.088107 -0.829524
-0.414020 -0.449767 0.751309 -0.991180 0.061617 -0.117130
-0.530647 -0.183493 -0.797443 -0.476272 -0.042543 -0.878262
-0.450974 -0.566275 0.542329 -0.894833 0.353191 0.272958
-0.398521 -0.074865 -0.851929 -0.346904 0.107669 -0.931669
-0.830773 -0.626617 0.083359 -0.912320 -0.191015 0.362133
-0.229806 0.026651 -0.880730 -0.187170 0.244392 -0.951415
-0.860218 -0.712469 -0.207388 -0.932707 -0.349803 0.087436
-0.859538 -0.698990 -0.425194 -0.928098 -0.318400 -0.192846
-0.100201 -0.017893 1.293912 -0.089511 0.240944 0.966369
-0.416471 -0.366906 0.671275 -0.929380 -0.342021 0.138676
-0.886611 -0.253396 0.168960 -0.900357 -0.200781 0.385968
-0.443869 0.034346 -0.815803 -0.344523 0.164037 -0.924314
-0.251830 0.084346 -0.860056 -0.184271 0.254158 -0.949431
-0.931638 -0.373558 -0.125557 -0.987640 -0.127659 0.090823
-0.933102 -0.382912 -0.341941 -0.986236 -0.088443 -0.139592
-0.114754 0.040455 1.271639 -0.104282 0.330454 0.938017
-0.257706 -0.022084 1.241259 -0.427015 0.146336 0.892300
-0.889524 -0.297349 -0.473345 -0.901028 0.007569 -0.433668
-0.409738 -0.075983 1.147714 -0.638142 -0.008118 0.769860
-0.807242 -0.201463 -0.580151 -0.758690 0.010346 -0.651326
-0.556587 -0.123302 0.984144 -0.831568 -0.232734 0.504288
-0.702176 -0.124160 -0.686307 -0.627247 -0.009888 -0.778741
-0.588853 -0.212273 0.765790 -0.861019 -0.492904 0.125004
-0.585834 -0.042406 -0.763791 -0.485885 0.062288 -0.871792
0.000000 0.104443 1.228404 0.000000 0.473708 0.880673
0.000000 0.134320 -0.867618 0.000000 0.310282 -0.950621
4 0 1 2 3
4 4 5 6 7
4 8 0 3 9
4 10 4 7 11
4 12 8 9 13
4 14 10 11 15
4 16 12 13 17
4 18 14 15 19
4 20 16 17 21
4 22 18 19 23
4 24 20 21 25
4 26 24 25 27
4 1 28 29 2
4 5 26 27 6
4 2 29 30 31
4 6 27 32 33
4 3 2 31 34
4 7 6 33 35
4 9 3 34 36
4 11 7 35 37
4 13 9 36 38
4 15 11 37 39
4 17 13 38 40
4 19 15 39 41
4 21 17 40 42
4 23 19 41 43
4 25 21 42 44
4 27 25 44 32
4 40 38 45 46
4 41 39 47 48
4 42 40 46 49
4 43 41 48 50
4 44 42 49 51
4 32 44 51 52
4 31 30 53 54
4 33 32 52 55
4 34 31 54 56
4 35 33 55 57
4 36 34 56 58
4 37 35 57 59
4 38 36 58 45
4 39 37 59 47
4 55 52 60 61
4 56 54 62 63
4 57 55 61 64
4 58 56 63 65
4 59 57 64 66
4 45 58 65 67
4 47 59 66 68
4 46 45 67 69
4 48 47 68 70
4 49 46 69 71
4 50 48 70 72
4 51 49 71 73
4 52 51 73 60
4 54 53 74 62
4 70 68 75 76
4 71 69 77 78
4 72 70 76 79
4 73 71 78 80
4 60 73 80 81
4 62 74 82 83
4 61 60 81 84
4 63 62 83 85
4 64 61 84 86
4 65 63 85 87
4 66 64 86 88
4 67 65 87 89
4 68 66 88 75
4 69 67 89 77
4 85 83 90 91
4 86 84 92 93
4 87 85 91 94
4 88 86 93 95
4 89 87 94 96
4 75 88 95 97
4 77 89 96 98
4 76 75 97 99
4 78 77 98 100
4 79 76 99 101
4 80 78 100 102
4 81 80 102 103
4 83 82 104 90
4 84 81 103 92
4 100 98 105 106
4 101 99 107 108
4 102 100 106 109
4 103 102 109 110
4 90 104 111 112
4 92 103 110 113
4 91 90 112 114
4 93 92 113 115
4 94 91 114 116
4 95 93 115 117
4 96 94 116 118
4 97 95 117 119
4 98 96 118 105
4 99 97 119 107
4 115 113 120 121
4 116 114 122 123
4 117 115 121 124
4 118 116 123 125
4 119 117 124 126
4 105 118 125 127
4 107 119 126 128
4 106 105 127 129
4 108 107 128 130
4 109 106 129 131
4 110 109 131 132
4 112 111 133 134
4 113 110 132 120
4 114 112 134 122
4 130 128 135 136
4 131 129 137 138
4 132 131 138 139
4 134 133 140 141
4 120 132 139 142
4 122 134 141 143
4 121 120 142 144
4 123 122 143 145
4 124 121 144 146
4 125 123 145 147
4 126 124 146 148
4 127 125 147 149
4 128 126 148 135
4 129 127 149 137
4 146 144 150 151
4 147 145 152 153
4 148 146 151 154
4 149 147 153 155
4 135 148 154 156
4 137 149 155 157
4 136 135 156 158
4 138 137 157 159
4 139 138 159 160
4 141 140 161 162
4 142 139 160 163
4 143 141 162 164
4 144 142 163 150
4 145 143 164 152
4 160 159 165 166
4 162 161 167 168
4 163 160 166 169
4 164 162 168 170
4 150 163 169 171
4 152 164 170 172
4 151 150 171 173
4 153 152 172 174
4 154 151 173 175
4 155 153 174 176
4 156 154 175 177
4 157 155 176 178
4 158 156 177 179
4 159 157 178 165
4 174 172 180 181
4 175 173 182 183
4 176 174 181 184
4 177 175 183 185
4 178 176 184 186
4 179 177 185 187
4 165 178 186 188
4 166 165 188 189
4 168 167 190 191
4 169 166 189 192
4 170 168 191 193
4 171 169 192 194
4 172 170 193 180
4 173 171 194 182
4 189 188 195 196
4 191 190 197 198
4 192 189 196 199
4 193 191 198 200
4 194 192 199 201
4 180 193 200 202
4 182 194 201 203
4 181 180 202 204
4 183 182 203 205
4 184 181 204 206
4 185 183 205 207
4 186 184 206 208
4 187 185 207 209
4 188 186 208 195
4 205 203 210 211
4 206 204 212 213
4 207 205 211 214
4 208 206 213 215
4 209 207 214 216
4 195 208 215 217
4 196 195 217 218
4 198 197 219 220
4 199 196 218 221
4 200 198 220 222
4 201 199 221 223
4 202 200 222 224
4 203 201 223 210
4 204 202 224 212
4 220 219 225 226
4 221 218 227 228
4 222 220 226 229
4 223 221 228 230
4 224 222 229 231
4 210 223 230 232
4 212 224 231 233
4 211 210 232 234
4 213 212 233 235
4 214 211 234 236
4 215 213 235 237
4 216 214 236 238
4 217 215 237 239
4 218 217 239 227
4 235 233 240 241
4 236 234 242 243
4 237 235 241 244
4 238 236 243 245
4 239 237 244 246
4 227 239 246 247
4 226 225 248 249
4 228 227 247 250
4 229 226 249 251
4 230 228 250 252
4 231 229 251 253
4 232 230 252 254
4 233 231 253 240
4 234 232 254 242
4 250 247 255 256
4 251 249 257 258
4 252 250 256 259
4 253 251 258 260
4 254 252 259 261
4 240 253 260 262
4 242 254 261 263
4 241 240 262 264
4 243 242 263 265
4 244 241 264 266
4 245 243 265 267
4 246 244 266 268
4 247 246 268 255
4 249 248 269 257
4 265 263 270 271
4 266 264 272 273
4 267 265 271 274
4 268 266 273 275
4 255 268 275 276
4 257 269 277 278
4 256 255 276 279
4 258 257 278 280
4 259 256 279 281
4 260 258 280 282
4 261 259 281 283
4 262 260 282 284
4 263 261 283 270
4 264 262 284 272
4 281 279 285 286
4 282 280 287 288
4 283 281 286 289
4 284 282 288 290
4 270 283 289 291
4 272 284 290 292
4 271 270 291 293
4 273 272 292 294
4 274 271 293 295
4 275 273 294 296
4 276 275 296 297
4 278 277 298 299
4 279 276 297 285
4 280 278 299 287
4 295 293 300 301
4 296 294 302 303
4 297 296 303 304
4 299 298 305 306
4 285 297 304 307
4 287 299 306 308
4 286 285 307 309
4 288 287 308 310
4 289 286 309 311
4 290 288 310 312
4 291 289 311 313
4 292 290 312 314
4 293 291 313 300
4 294 292 314 302
4 310 308 315 316
4 311 309 317 318
4 312 310 316 319
4 313 311 318 320
4 314 312 319 321
4 300 313 320 322
4 302 314 321 323
4 301 300 322 324
4 303 302 323 325
4 304 303 325 326
4 306 305 327 328
4 307 304 326 329
4 308 306 328 315
4 309 307 329 317
4 325 323 330 331
4 326 325 331 332
4 328 327 333 334
4 329 326 332 335
4 315 328 334 336
4 317 329 335 337
4 316 315 336 338
4 318 317 337 339
4 319 316 338 340
4 320 318 339 341
4 321 319 340 342
4 322 320 341 343
4 323 321 342 330
4 324 322 343 344
4 339 337 345 346
4 340 338 347 348
4 341 339 346 349
4 342 340 348 350
4 343 341 349 351
4 330 342 350 352
4 344 343 351 353
4 331 330 352 354
4 332 331 354 355
4 334 333 356 357
4 335 332 355 358
4 336 334 357 359
4 337 335 358 345
4 338 336 359 347
4 355 354 360 361
4 357 356 362 363
4 358 355 361 364
4 359 357 363 365
4 345 358 364 366
4 347 359 365 367
4 346 345 366 368
4 348 347 367 369
4 349 346 368 370
4 350 348 369 371
4 351 349 370 372
4 352 350 371 373
4 353 351 372 374
4 354 352 373 360
4 369 367 375 376
4 370 368 377 378
4 371 369 376 379
4 372 370 378 380
4 373 371 379 381
4 374 372 380 382
4 360 373 381 383
4 361 360 383 384
4 363 362 385 386
4 364 361 384 387
4 365 363 386 388
4 366 364 387 389
4 367 365 388 375
4 368 366 389 377
4 384 383 390 391
4 386 385 392 393
4 387 384 391 394
4 388 386 393 395
4 389 387 394 396
4 375 388 395 397
4 377 389 396 398
4 376 375 397 399
4 378 377 398 400
4 379 376 399 401
4 380 378 400 402
4 381 379 401 403
4 382 380 402 404
4 383 381 403 390
4 400 398 405 406
4 401 399 407 408
4 402 400 406 409
4 403 401 408 410
4 404 402 409 411
4 390 403 410 412
4 391 390 412 413
4 393 392 414 415
4 394 391 413 416
4 395 393 415 417
4 396 394 416 418
4 397 395 417 419
4 398 396 418 405
4 399 397 419 407
4 416 413 420 421
4 417 415 422 423
4 418 416 421 424
4 419 417 423 425
4 405 418 424 426
4 407 419 425 427
4 406 405 426 428
4 408 407 427 429
4 409 406 428 430
4 410 408 429 431
4 411 409 430 432
4 412 410 431 433
4 413 412 433 420
4 415 414 434 422
4 430 428 435 436
4 431 429 437 438
4 432 430 436 439
4 433 431 438 440
4 420 433 440 441
4 422 434 442 443
4 421 420 441 444
4 423 422 443 445
4 424 421 444 446
4 425 423 445 447
4 426 424 446 448
4 427 425 447 449
4 428 426 448 435
4 429 427 449 437
4 445 443 450 451
4 446 444 452 453
4 447 445 451 454
4 448 446 453 455
4 449 447 454 456
4 435 448 455 457
4 437 449 456 458
4 436 435 457 459
4 438 437 458 460
4 439 436 459 461
4 440 438 460 462
4 441 440 462 463
4 443 442 464 450
4 444 441 463 452
4 460 458 465 466
4 461 459 467 468
4 462 460 466 469
4 463 462 469 470
4 450 464 471 472
4 452 463 470 473
4 451 450 472 474
4 453 452 473 475
4 454 451 474 476
4 455 453 475 477
4 456 454 476 478
4 457 455 477 479
4 458 456 478 465
4 459 457 479 467
3 28 480 29
3 481 22 23
3 29 480 30
3 481 23 43
3 30 480 53
3 481 43 50
3 53 480 74
3 481 50 72
3 74 480 82
3 481 72 79
3 82 480 104
3 481 79 101
3 104 480 111
3 481 101 108
3 111 480 133
3 481 108 130
3 133 480 140
3 481 130 136
3 140 480 161
3 481 136 158
3 161 480 167
3 481 158 179
3 167 480 190
3 481 179 187
3 190 480 197
3 481 187 209
3 197 480 219
3 481 209 216
3 219 480 225
3 481 216 238
3 225 480 248
3 481 238 245
3 248 480 269
3 481 245 267
3 269 480 277
3 481 267 274
3 277 480 298
3 481 274 295
3 298 480 305
3 481 295 301
3 305 480 327
3 481 301 324
3 327 480 333
3 481 324 344
3 333 480 356
3 481 344 353
3 356 480 362
3 481 353 374
3 362 480 385
3 481 374 382
3 385 480 392
3 481 382 404
3 392 480 414
3 481 404 411
3 414 480 434
3 481 411 432
3 434 480 442
3 481 432 439
3 442 480 464
3 481 439 461
3 464 480 471
3 481 461 468
4 475 473 5 4
4 476 474 0 8
4 477 475 4 10
4 478 476 8 12
4 479 477 10 14
4 465 478 12 16
4 467 479 14 18
4 466 465 16 20
4 468 467 18 22
4 469 466 20 24
3 471 480 28
3 481 468 22
4 470 469 24 26
4 28 1 472 471
4 473 470 26 5
4 474 472 1 0
