ply
format ascii 1.0
comment Created by Blender 2.76 (sub 0) - www.blender.org, source file: 'letter.blend'
element vertex 48
property float x
property float y
property float z
property float nx
property float ny
property float nz
element face 12
property list uchar uint vertex_indices
end_header
0.100000 -0.711603 -0.816025 1.000000 0.000000 0.000000
0.100000 -0.538397 -0.916025 1.000000 0.000000 0.000000
0.100000 0.461603 0.816025 1.000000 0.000000 0.000000
0.100000 0.288397 0.916025 1.000000 0.000000 0.000000
0.100000 0.288397 0.916025 0.000000 -0.866025 0.500000
-0.100000 0.288397 0.916025 0.000000 -0.866025 0.500000
-0.100000 -0.711603 -0.816025 0.000000 -0.866025 0.500000
0.100000 -0.711603 -0.816025 0.000000 -0.866025 0.500000
-0.100000 0.288397 0.916025 -1.000000 -0.000000 -0.000000
-0.100000 0.461603 0.816025 -1.000000 -0.000000 -0.000000
-0.100000 -0.538397 -0.916025 -1.000000 -0.000000 -0.000000
-0.100000 -0.711603 -0.816025 -1.000000 -0.000000 -0.000000
0.100000 -0.538397 -0.916025 -0.000000 0.866025 -0.500000
-0.100000 -0.538397 -0.916025 -0.000000 0.866025 -0.500000
-0.100000 0.461603 0.816025 -0.000000 0.866025 -0.500000
0.100000 0.461603 0.816025 -0.000000 0.866025 -0.500000
0.100000 -0.538397 -0.916025 0.000000 -0.500000 -0.866025
0.100000 -0.711603 -0.816025 0.000000 -0.500000 -0.866025
-0.100000 -0.711603 -0.816025 0.000000 -0.500000 -0.866025
-0.100000 -0.538397 -0.916025 0.000000 -0.500000 -0.866025
-0.100000 0.461603 0.816025 -0.000000 0.500000 0.866025
-0.100000 0.288397 0.916025 -0.000000 0.500000 0.866025
0.100000 0.288397 0.916025 -0.000000 0.500000 0.866025
0.100000 0.461603 0.816025 -0.000000 0.500000 0.866025
-0.100000 -0.586603 0.816025 -1.000000 0.000000 0.000000
-0.100000 -0.413397 0.916025 -1.000000 0.000000 0.000000
-0.100000 0.586603 -0.816025 -1.000000 0.000000 0.000000
-0.100000 0.413397 -0.916025 -1.000000 0.000000 0.000000
-0.100000 -0.413397 0.916025 0.000000 0.866025 0.500000
0.100000 -0.413397 0.916025 0.000000 0.866025 0.500000
0.100000 0.586603 -0.816025 0.000000 0.866025 0.500000
-0.100000 0.586603 -0.816025 0.000000 0.866025 0.500000
0.100000 -0.413397 0.916025 1.000000 -0.000000 -0.000000
0.100000 -0.586603 0.816025 1.000000 -0.000000 -0.000000
0.100000 0.413397 -0.916025 1.000000 -0.000000 -0.000000
0.100000 0.586603 -0.816025 1.000000 -0.000000 -0.000000
0.100000 -0.586603 0.816025 0.000000 -0.866025 -0.500000
-0.100000 -0.586603 0.816025 0.000000 -0.866025 -0.500000
-0.100000 0.413397 -0.916025 0.000000 -0.866025 -0.500000
0.100000 0.413397 -0.916025 0.000000 -0.866025 -0.500000
-0.100000 0.413397 -0.916025 0.000000 0.500000 -0.866025
-0.100000 0.586603 -0.816025 0.000000 0.500000 -0.866025
0.100000 0.586603 -0.816025 0.000000 0.500000 -0.866025
0.100000 0.413397 -0.916025 0.000000 0.500000 -0.866025
0.100000 -0.586603 0.816025 -0.000000 -0.500000 0.866025
0.100000 -0.413397 0.916025 -0.000000 -0.500000 0.866025
-0.100000 -0.413397 0.916025 -0.000000 -0.500000 0.866025
-0.100000 -0.586603 0.816025 -0.000000 -0.500000 0.866025
4 0 1 2 3
4 4 5 6 7
4 8 9 10 11
4 12 13 14 15
4 16 17 18 19
4 20 21 22 23
4 24 25 26 27
4 28 29 30 31
4 32 33 34 35
4 36 37 38 39
4 40 41 42 43
4 44 45 46 47
